<?xml version="1.0" encoding="utf-8"?>
<!-- Generator: Adobe Illustrator 26.0.0, SVG Export Plug-In . SVG Version: 6.00 Build 0)  -->
<svg version="1.1" id="Livello_1" xmlns="http://www.w3.org/2000/svg" xmlns:xlink="http://www.w3.org/1999/xlink" x="0px" y="0px"
	 viewBox="0 0 576 432" enable-background="new 0 0 576 432" xml:space="preserve">
<polygon opacity="0.4" fill="#66FFCC" points="130.59,307.72 125.01,307.72 124.5,306.34 123.91,304.96 123.24,303.58 122.49,302.2 
	121.64,300.82 120.71,299.44 119.67,298.06 118.54,296.68 117.31,295.3 115.98,293.92 114.56,292.54 113.04,291.16 111.44,289.78 
	109.76,288.4 108.02,287.02 106.23,285.64 104.4,284.26 102.54,282.88 100.69,281.5 98.84,280.12 97.02,278.74 95.26,277.36 
	93.57,275.98 91.96,274.6 90.47,273.22 89.09,271.84 87.85,270.47 86.76,269.09 85.83,267.71 85.07,266.33 84.48,264.95 
	84.06,263.57 83.82,262.19 83.74,260.81 83.83,259.43 84.08,258.05 84.47,256.67 85,255.29 85.65,253.91 86.41,252.53 87.26,251.15 
	88.19,249.77 89.19,248.39 90.23,247.01 91.3,245.63 92.4,244.25 93.51,242.87 94.61,241.49 95.7,240.11 96.77,238.73 97.81,237.35 
	98.82,235.97 99.79,234.59 100.72,233.21 101.6,231.83 102.43,230.45 103.22,229.07 103.96,227.69 104.66,226.31 105.31,224.93 
	105.93,223.55 106.51,222.17 107.06,220.8 107.59,219.42 108.09,218.04 108.58,216.66 109.06,215.28 109.54,213.9 110.01,212.52 
	110.49,211.14 110.99,209.76 111.49,208.38 112.01,207 112.56,205.62 113.12,204.24 113.7,202.86 114.31,201.48 114.93,200.1 
	115.57,198.72 116.23,197.34 116.89,195.96 117.57,194.58 118.24,193.2 118.91,191.82 119.58,190.44 120.24,189.06 120.87,187.68 
	121.49,186.3 122.09,184.92 122.65,183.54 123.19,182.16 123.69,180.78 124.16,179.4 124.59,178.02 124.99,176.64 125.35,175.26 
	125.68,173.88 125.98,172.5 126.24,171.13 129.36,171.13 129.62,172.5 129.92,173.88 130.25,175.26 130.61,176.64 131.01,178.02 
	131.44,179.4 131.91,180.78 132.41,182.16 132.95,183.54 133.51,184.92 134.11,186.3 134.73,187.68 135.36,189.06 136.02,190.44 
	136.69,191.82 137.36,193.2 138.03,194.58 138.71,195.96 139.37,197.34 140.03,198.72 140.67,200.1 141.29,201.48 141.9,202.86 
	142.48,204.24 143.04,205.62 143.59,207 144.11,208.38 144.61,209.76 145.11,211.14 145.59,212.52 146.06,213.9 146.54,215.28 
	147.02,216.66 147.51,218.04 148.01,219.42 148.54,220.8 149.09,222.17 149.67,223.55 150.29,224.93 150.94,226.31 151.64,227.69 
	152.38,229.07 153.17,230.45 154,231.83 154.88,233.21 155.81,234.59 156.78,235.97 157.79,237.35 158.83,238.73 159.9,240.11 
	160.99,241.49 162.09,242.87 163.2,244.25 164.3,245.63 165.37,247.01 166.41,248.39 167.41,249.77 168.34,251.15 169.19,252.53 
	169.95,253.91 170.6,255.29 171.13,256.67 171.52,258.05 171.77,259.43 171.86,260.81 171.78,262.19 171.54,263.57 171.12,264.95 
	170.53,266.33 169.77,267.71 168.84,269.09 167.75,270.47 166.51,271.84 165.13,273.22 163.64,274.6 162.03,275.98 160.34,277.36 
	158.58,278.74 156.76,280.12 154.91,281.5 153.06,282.88 151.2,284.26 149.37,285.64 147.58,287.02 145.84,288.4 144.16,289.78 
	142.56,291.16 141.04,292.54 139.62,293.92 138.29,295.3 137.06,296.68 135.93,298.06 134.89,299.44 133.96,300.82 133.11,302.2 
	132.36,303.58 131.69,304.96 131.1,306.34 "/>
<polygon fill="none" stroke="#3D3D3D" stroke-width="0.75" stroke-linejoin="round" stroke-miterlimit="10" points="130.59,307.72 
	125.01,307.72 124.5,306.34 123.91,304.96 123.24,303.58 122.49,302.2 121.64,300.82 120.71,299.44 119.67,298.06 118.54,296.68 
	117.31,295.3 115.98,293.92 114.56,292.54 113.04,291.16 111.44,289.78 109.76,288.4 108.02,287.02 106.23,285.64 104.4,284.26 
	102.54,282.88 100.69,281.5 98.84,280.12 97.02,278.74 95.26,277.36 93.57,275.98 91.96,274.6 90.47,273.22 89.09,271.84 
	87.85,270.47 86.76,269.09 85.83,267.71 85.07,266.33 84.48,264.95 84.06,263.57 83.82,262.19 83.74,260.81 83.83,259.43 
	84.08,258.05 84.47,256.67 85,255.29 85.65,253.91 86.41,252.53 87.26,251.15 88.19,249.77 89.19,248.39 90.23,247.01 91.3,245.63 
	92.4,244.25 93.51,242.87 94.61,241.49 95.7,240.11 96.77,238.73 97.81,237.35 98.82,235.97 99.79,234.59 100.72,233.21 
	101.6,231.83 102.43,230.45 103.22,229.07 103.96,227.69 104.66,226.31 105.31,224.93 105.93,223.55 106.51,222.17 107.06,220.8 
	107.59,219.42 108.09,218.04 108.58,216.66 109.06,215.28 109.54,213.9 110.01,212.52 110.49,211.14 110.99,209.76 111.49,208.38 
	112.01,207 112.56,205.62 113.12,204.24 113.7,202.86 114.31,201.48 114.93,200.1 115.57,198.72 116.23,197.34 116.89,195.96 
	117.57,194.58 118.24,193.2 118.91,191.82 119.58,190.44 120.24,189.06 120.87,187.68 121.49,186.3 122.09,184.92 122.65,183.54 
	123.19,182.16 123.69,180.78 124.16,179.4 124.59,178.02 124.99,176.64 125.35,175.26 125.68,173.88 125.98,172.5 126.24,171.13 
	129.36,171.13 129.62,172.5 129.92,173.88 130.25,175.26 130.61,176.64 131.01,178.02 131.44,179.4 131.91,180.78 132.41,182.16 
	132.95,183.54 133.51,184.92 134.11,186.3 134.73,187.68 135.36,189.06 136.02,190.44 136.69,191.82 137.36,193.2 138.03,194.58 
	138.71,195.96 139.37,197.34 140.03,198.72 140.67,200.1 141.29,201.48 141.9,202.86 142.48,204.24 143.04,205.62 143.59,207 
	144.11,208.38 144.61,209.76 145.11,211.14 145.59,212.52 146.06,213.9 146.54,215.28 147.02,216.66 147.51,218.04 148.01,219.42 
	148.54,220.8 149.09,222.17 149.67,223.55 150.29,224.93 150.94,226.31 151.64,227.69 152.38,229.07 153.17,230.45 154,231.83 
	154.88,233.21 155.81,234.59 156.78,235.97 157.79,237.35 158.83,238.73 159.9,240.11 160.99,241.49 162.09,242.87 163.2,244.25 
	164.3,245.63 165.37,247.01 166.41,248.39 167.41,249.77 168.34,251.15 169.19,252.53 169.95,253.91 170.6,255.29 171.13,256.67 
	171.52,258.05 171.77,259.43 171.86,260.81 171.78,262.19 171.54,263.57 171.12,264.95 170.53,266.33 169.77,267.71 168.84,269.09 
	167.75,270.47 166.51,271.84 165.13,273.22 163.64,274.6 162.03,275.98 160.34,277.36 158.58,278.74 156.76,280.12 154.91,281.5 
	153.06,282.88 151.2,284.26 149.37,285.64 147.58,287.02 145.84,288.4 144.16,289.78 142.56,291.16 141.04,292.54 139.62,293.92 
	138.29,295.3 137.06,296.68 135.93,298.06 134.89,299.44 133.96,300.82 133.11,302.2 132.36,303.58 131.69,304.96 131.1,306.34 "/>
<polygon opacity="0.4" fill="#66FFCC" points="240.3,335.2 238.5,335.2 238.34,332.49 238.15,329.78 237.94,327.06 237.71,324.35 
	237.44,321.64 237.15,318.93 236.82,316.21 236.46,313.5 236.07,310.79 235.64,308.08 235.18,305.36 234.68,302.65 234.15,299.94 
	233.59,297.23 233,294.51 232.37,291.8 231.72,289.09 231.04,286.38 230.34,283.66 229.62,280.95 228.89,278.24 228.14,275.53 
	227.39,272.81 226.64,270.1 225.89,267.39 225.15,264.68 224.42,261.96 223.72,259.25 223.04,256.54 222.39,253.83 221.79,251.11 
	221.22,248.4 220.71,245.69 220.25,242.98 219.84,240.26 219.5,237.55 219.22,234.84 219,232.13 218.85,229.41 218.76,226.7 
	218.74,223.99 218.77,221.28 218.87,218.56 219.02,215.85 219.21,213.14 219.45,210.43 219.73,207.71 220.03,205 220.36,202.29 
	220.71,199.58 221.07,196.86 221.43,194.15 221.8,191.44 222.16,188.73 222.51,186.01 222.85,183.3 223.18,180.59 223.5,177.88 
	223.81,175.16 224.11,172.45 224.39,169.74 224.67,167.03 224.95,164.31 225.22,161.6 225.5,158.89 225.78,156.18 226.08,153.46 
	226.39,150.75 226.71,148.04 227.06,145.33 227.42,142.61 227.8,139.9 228.21,137.19 228.64,134.48 229.08,131.76 229.55,129.05 
	230.03,126.34 230.52,123.63 231.03,120.92 231.54,118.2 232.05,115.49 232.56,112.78 233.07,110.07 233.57,107.35 234.05,104.64 
	234.53,101.93 234.98,99.22 235.41,96.5 235.82,93.79 236.2,91.08 236.56,88.37 236.89,85.65 237.2,82.94 237.48,80.23 
	237.73,77.52 237.96,74.8 238.17,72.09 238.35,69.38 238.51,66.67 240.29,66.67 240.45,69.38 240.63,72.09 240.84,74.8 
	241.07,77.52 241.32,80.23 241.6,82.94 241.91,85.65 242.24,88.37 242.6,91.08 242.98,93.79 243.39,96.5 243.82,99.22 
	244.27,101.93 244.75,104.64 245.23,107.35 245.73,110.07 246.24,112.78 246.75,115.49 247.26,118.2 247.77,120.92 248.28,123.63 
	248.77,126.34 249.25,129.05 249.72,131.76 250.16,134.48 250.59,137.19 251,139.9 251.38,142.61 251.74,145.33 252.09,148.04 
	252.41,150.75 252.72,153.46 253.02,156.18 253.3,158.89 253.58,161.6 253.85,164.31 254.13,167.03 254.41,169.74 254.69,172.45 
	254.99,175.16 255.3,177.88 255.62,180.59 255.95,183.3 256.29,186.01 256.64,188.73 257,191.44 257.37,194.15 257.73,196.86 
	258.09,199.58 258.44,202.29 258.77,205 259.07,207.71 259.35,210.43 259.59,213.14 259.78,215.85 259.93,218.56 260.03,221.28 
	260.06,223.99 260.04,226.7 259.95,229.41 259.8,232.13 259.58,234.84 259.3,237.55 258.96,240.26 258.55,242.98 258.09,245.69 
	257.58,248.4 257.01,251.11 256.41,253.83 255.76,256.54 255.08,259.25 254.38,261.96 253.65,264.68 252.91,267.39 252.16,270.1 
	251.41,272.81 250.66,275.53 249.91,278.24 249.18,280.95 248.46,283.66 247.76,286.38 247.08,289.09 246.43,291.8 245.8,294.51 
	245.21,297.23 244.65,299.94 244.12,302.65 243.62,305.36 243.16,308.08 242.73,310.79 242.34,313.5 241.98,316.21 241.65,318.93 
	241.36,321.64 241.09,324.35 240.86,327.06 240.65,329.78 240.46,332.49 "/>
<polygon fill="none" stroke="#3D3D3D" stroke-width="0.75" stroke-linejoin="round" stroke-miterlimit="10" points="240.3,335.2 
	238.5,335.2 238.34,332.49 238.15,329.78 237.94,327.06 237.71,324.35 237.44,321.64 237.15,318.93 236.82,316.21 236.46,313.5 
	236.07,310.79 235.64,308.08 235.18,305.36 234.68,302.65 234.15,299.94 233.59,297.23 233,294.51 232.37,291.8 231.72,289.09 
	231.04,286.38 230.34,283.66 229.62,280.95 228.89,278.24 228.14,275.53 227.39,272.81 226.64,270.1 225.89,267.39 225.15,264.68 
	224.42,261.96 223.72,259.25 223.04,256.54 222.39,253.83 221.79,251.11 221.22,248.4 220.71,245.69 220.25,242.98 219.84,240.26 
	219.5,237.55 219.22,234.84 219,232.13 218.85,229.41 218.76,226.7 218.74,223.99 218.77,221.28 218.87,218.56 219.02,215.85 
	219.21,213.14 219.45,210.43 219.73,207.71 220.03,205 220.36,202.29 220.71,199.58 221.07,196.86 221.43,194.15 221.8,191.44 
	222.16,188.73 222.51,186.01 222.85,183.3 223.18,180.59 223.5,177.88 223.81,175.16 224.11,172.45 224.39,169.74 224.67,167.03 
	224.95,164.31 225.22,161.6 225.5,158.89 225.78,156.18 226.08,153.46 226.39,150.75 226.71,148.04 227.06,145.33 227.42,142.61 
	227.8,139.9 228.21,137.19 228.64,134.48 229.08,131.76 229.55,129.05 230.03,126.34 230.52,123.63 231.03,120.92 231.54,118.2 
	232.05,115.49 232.56,112.78 233.07,110.07 233.57,107.35 234.05,104.64 234.53,101.93 234.98,99.22 235.41,96.5 235.82,93.79 
	236.2,91.08 236.56,88.37 236.89,85.65 237.2,82.94 237.48,80.23 237.73,77.52 237.96,74.8 238.17,72.09 238.35,69.38 238.51,66.67 
	240.29,66.67 240.45,69.38 240.63,72.09 240.84,74.8 241.07,77.52 241.32,80.23 241.6,82.94 241.91,85.65 242.24,88.37 242.6,91.08 
	242.98,93.79 243.39,96.5 243.82,99.22 244.27,101.93 244.75,104.64 245.23,107.35 245.73,110.07 246.24,112.78 246.75,115.49 
	247.26,118.2 247.77,120.92 248.28,123.63 248.77,126.34 249.25,129.05 249.72,131.76 250.16,134.48 250.59,137.19 251,139.9 
	251.38,142.61 251.74,145.33 252.09,148.04 252.41,150.75 252.72,153.46 253.02,156.18 253.3,158.89 253.58,161.6 253.85,164.31 
	254.13,167.03 254.41,169.74 254.69,172.45 254.99,175.16 255.3,177.88 255.62,180.59 255.95,183.3 256.29,186.01 256.64,188.73 
	257,191.44 257.37,194.15 257.73,196.86 258.09,199.58 258.44,202.29 258.77,205 259.07,207.71 259.35,210.43 259.59,213.14 
	259.78,215.85 259.93,218.56 260.03,221.28 260.06,223.99 260.04,226.7 259.95,229.41 259.8,232.13 259.58,234.84 259.3,237.55 
	258.96,240.26 258.55,242.98 258.09,245.69 257.58,248.4 257.01,251.11 256.41,253.83 255.76,256.54 255.08,259.25 254.38,261.96 
	253.65,264.68 252.91,267.39 252.16,270.1 251.41,272.81 250.66,275.53 249.91,278.24 249.18,280.95 248.46,283.66 247.76,286.38 
	247.08,289.09 246.43,291.8 245.8,294.51 245.21,297.23 244.65,299.94 244.12,302.65 243.62,305.36 243.16,308.08 242.73,310.79 
	242.34,313.5 241.98,316.21 241.65,318.93 241.36,321.64 241.09,324.35 240.86,327.06 240.65,329.78 240.46,332.49 "/>
<polygon opacity="0.4" fill="#66FFCC" points="353.05,363.17 348.95,363.17 348.58,361.56 348.16,359.94 347.69,358.33 
	347.15,356.71 346.55,355.1 345.87,353.48 345.13,351.87 344.32,350.25 343.43,348.64 342.46,347.02 341.42,345.41 340.3,343.79 
	339.12,342.18 337.86,340.56 336.55,338.95 335.19,337.33 333.78,335.71 332.34,334.1 330.88,332.48 329.41,330.87 327.94,329.25 
	326.5,327.64 325.08,326.02 323.72,324.41 322.43,322.79 321.22,321.18 320.1,319.56 319.09,317.95 318.2,316.33 317.44,314.72 
	316.82,313.1 316.34,311.49 316.01,309.87 315.84,308.26 315.81,306.64 315.92,305.02 316.17,303.41 316.55,301.79 317.05,300.18 
	317.65,298.56 318.35,296.95 319.11,295.33 319.94,293.72 320.81,292.1 321.7,290.49 322.6,288.87 323.49,287.26 324.35,285.64 
	325.18,284.03 325.96,282.41 326.68,280.8 327.34,279.18 327.93,277.56 328.44,275.95 328.88,274.33 329.25,272.72 329.55,271.1 
	329.79,269.49 329.98,267.87 330.12,266.26 330.23,264.64 330.32,263.03 330.4,261.41 330.49,259.8 330.58,258.18 330.7,256.57 
	330.85,254.95 331.04,253.34 331.29,251.72 331.58,250.11 331.94,248.49 332.35,246.87 332.83,245.26 333.36,243.64 333.96,242.03 
	334.6,240.41 335.3,238.8 336.03,237.18 336.8,235.57 337.59,233.95 338.4,232.34 339.23,230.72 340.05,229.11 340.87,227.49 
	341.68,225.88 342.46,224.26 343.22,222.65 343.95,221.03 344.65,219.41 345.31,217.8 345.92,216.18 346.5,214.57 347.03,212.95 
	347.51,211.34 347.96,209.72 348.36,208.11 348.72,206.49 349.04,204.88 349.33,203.26 352.67,203.26 352.96,204.88 353.28,206.49 
	353.64,208.11 354.04,209.72 354.49,211.34 354.97,212.95 355.5,214.57 356.08,216.18 356.69,217.8 357.35,219.41 358.05,221.03 
	358.78,222.65 359.54,224.26 360.32,225.88 361.13,227.49 361.95,229.11 362.77,230.72 363.6,232.34 364.41,233.95 365.2,235.57 
	365.97,237.18 366.7,238.8 367.4,240.41 368.04,242.03 368.64,243.64 369.17,245.26 369.65,246.87 370.06,248.49 370.42,250.11 
	370.71,251.72 370.96,253.34 371.15,254.95 371.3,256.57 371.42,258.18 371.51,259.8 371.6,261.41 371.68,263.03 371.77,264.64 
	371.88,266.26 372.02,267.87 372.21,269.49 372.45,271.1 372.75,272.72 373.12,274.33 373.56,275.95 374.07,277.56 374.66,279.18 
	375.32,280.8 376.04,282.41 376.82,284.03 377.65,285.64 378.51,287.26 379.4,288.87 380.3,290.49 381.19,292.1 382.06,293.72 
	382.89,295.33 383.65,296.95 384.35,298.56 384.95,300.18 385.45,301.79 385.83,303.41 386.08,305.02 386.19,306.64 386.16,308.26 
	385.99,309.87 385.66,311.49 385.18,313.1 384.56,314.72 383.8,316.33 382.91,317.95 381.9,319.56 380.78,321.18 379.57,322.79 
	378.28,324.41 376.92,326.02 375.5,327.64 374.06,329.25 372.59,330.87 371.12,332.48 369.66,334.1 368.22,335.71 366.81,337.33 
	365.45,338.95 364.14,340.56 362.88,342.18 361.7,343.79 360.58,345.41 359.54,347.02 358.57,348.64 357.68,350.25 356.87,351.87 
	356.13,353.48 355.45,355.1 354.85,356.71 354.31,358.33 353.84,359.94 353.42,361.56 "/>
<polygon fill="none" stroke="#3D3D3D" stroke-width="0.75" stroke-linejoin="round" stroke-miterlimit="10" points="353.05,363.17 
	348.95,363.17 348.58,361.56 348.16,359.94 347.69,358.33 347.15,356.71 346.55,355.1 345.87,353.48 345.13,351.87 344.32,350.25 
	343.43,348.64 342.46,347.02 341.42,345.41 340.3,343.79 339.12,342.18 337.86,340.56 336.55,338.95 335.19,337.33 333.78,335.71 
	332.34,334.1 330.88,332.48 329.41,330.87 327.94,329.25 326.5,327.64 325.08,326.02 323.72,324.41 322.43,322.79 321.22,321.18 
	320.1,319.56 319.09,317.95 318.2,316.33 317.44,314.72 316.82,313.1 316.34,311.49 316.01,309.87 315.84,308.26 315.81,306.64 
	315.92,305.02 316.17,303.41 316.55,301.79 317.05,300.18 317.65,298.56 318.35,296.95 319.11,295.33 319.94,293.72 320.81,292.1 
	321.7,290.49 322.6,288.87 323.49,287.26 324.35,285.64 325.18,284.03 325.96,282.41 326.68,280.8 327.34,279.18 327.93,277.56 
	328.44,275.95 328.88,274.33 329.25,272.72 329.55,271.1 329.79,269.49 329.98,267.87 330.12,266.26 330.23,264.64 330.32,263.03 
	330.4,261.41 330.49,259.8 330.58,258.18 330.7,256.57 330.85,254.95 331.04,253.34 331.29,251.72 331.58,250.11 331.94,248.49 
	332.35,246.87 332.83,245.26 333.36,243.64 333.96,242.03 334.6,240.41 335.3,238.8 336.03,237.18 336.8,235.57 337.59,233.95 
	338.4,232.34 339.23,230.72 340.05,229.11 340.87,227.49 341.68,225.88 342.46,224.26 343.22,222.65 343.95,221.03 344.65,219.41 
	345.31,217.8 345.92,216.18 346.5,214.57 347.03,212.95 347.51,211.34 347.96,209.72 348.36,208.11 348.72,206.49 349.04,204.88 
	349.33,203.26 352.67,203.26 352.96,204.88 353.28,206.49 353.64,208.11 354.04,209.72 354.49,211.34 354.97,212.95 355.5,214.57 
	356.08,216.18 356.69,217.8 357.35,219.41 358.05,221.03 358.78,222.65 359.54,224.26 360.32,225.88 361.13,227.49 361.95,229.11 
	362.77,230.72 363.6,232.34 364.41,233.95 365.2,235.57 365.97,237.18 366.7,238.8 367.4,240.41 368.04,242.03 368.64,243.64 
	369.17,245.26 369.65,246.87 370.06,248.49 370.42,250.11 370.71,251.72 370.96,253.34 371.15,254.95 371.3,256.57 371.42,258.18 
	371.51,259.8 371.6,261.41 371.68,263.03 371.77,264.64 371.88,266.26 372.02,267.87 372.21,269.49 372.45,271.1 372.75,272.72 
	373.12,274.33 373.56,275.95 374.07,277.56 374.66,279.18 375.32,280.8 376.04,282.41 376.82,284.03 377.65,285.64 378.51,287.26 
	379.4,288.87 380.3,290.49 381.19,292.1 382.06,293.72 382.89,295.33 383.65,296.95 384.35,298.56 384.95,300.18 385.45,301.79 
	385.83,303.41 386.08,305.02 386.19,306.64 386.16,308.26 385.99,309.87 385.66,311.49 385.18,313.1 384.56,314.72 383.8,316.33 
	382.91,317.95 381.9,319.56 380.78,321.18 379.57,322.79 378.28,324.41 376.92,326.02 375.5,327.64 374.06,329.25 372.59,330.87 
	371.12,332.48 369.66,334.1 368.22,335.71 366.81,337.33 365.45,338.95 364.14,340.56 362.88,342.18 361.7,343.79 360.58,345.41 
	359.54,347.02 358.57,348.64 357.68,350.25 356.87,351.87 356.13,353.48 355.45,355.1 354.85,356.71 354.31,358.33 353.84,359.94 
	353.42,361.56 "/>
<polygon opacity="0.4" fill="#66FFCC" points="464.16,347.03 461.04,347.03 460.77,345.66 460.48,344.29 460.15,342.92 
	459.79,341.55 459.4,340.18 458.97,338.82 458.51,337.45 458.02,336.08 457.51,334.71 456.96,333.34 456.4,331.97 455.82,330.6 
	455.22,329.23 454.62,327.86 454.01,326.49 453.41,325.12 452.81,323.75 452.23,322.38 451.66,321.01 451.12,319.64 450.59,318.27 
	450.09,316.9 449.61,315.53 449.16,314.16 448.73,312.79 448.31,311.42 447.9,310.05 447.5,308.68 447.1,307.31 446.69,305.94 
	446.26,304.57 445.8,303.21 445.31,301.84 444.77,300.47 444.19,299.1 443.55,297.73 442.85,296.36 442.08,294.99 441.25,293.62 
	440.35,292.25 439.38,290.88 438.36,289.51 437.27,288.14 436.14,286.77 434.97,285.4 433.76,284.03 432.53,282.66 431.28,281.29 
	430.03,279.92 428.79,278.55 427.57,277.18 426.38,275.81 425.23,274.44 424.13,273.07 423.09,271.7 422.12,270.33 421.23,268.96 
	420.43,267.6 419.73,266.23 419.14,264.86 418.65,263.49 418.29,262.12 418.06,260.75 417.96,259.38 418,258.01 418.18,256.64 
	418.51,255.27 418.99,253.9 419.62,252.53 420.39,251.16 421.31,249.79 422.37,248.42 423.56,247.05 424.88,245.68 426.31,244.31 
	427.83,242.94 429.45,241.57 431.14,240.2 432.89,238.83 434.67,237.46 436.48,236.09 438.29,234.72 440.1,233.35 441.88,231.98 
	443.62,230.62 445.3,229.25 446.93,227.88 448.47,226.51 449.94,225.14 451.31,223.77 452.6,222.4 453.78,221.03 454.87,219.66 
	455.87,218.29 456.77,216.92 457.58,215.55 458.3,214.18 458.94,212.81 459.5,211.44 465.7,211.44 466.26,212.81 466.9,214.18 
	467.62,215.55 468.43,216.92 469.33,218.29 470.33,219.66 471.42,221.03 472.6,222.4 473.89,223.77 475.26,225.14 476.73,226.51 
	478.27,227.88 479.9,229.25 481.58,230.62 483.32,231.98 485.1,233.35 486.91,234.72 488.72,236.09 490.53,237.46 492.31,238.83 
	494.06,240.2 495.75,241.57 497.37,242.94 498.89,244.31 500.32,245.68 501.64,247.05 502.83,248.42 503.89,249.79 504.81,251.16 
	505.58,252.53 506.21,253.9 506.69,255.27 507.02,256.64 507.2,258.01 507.24,259.38 507.14,260.75 506.91,262.12 506.55,263.49 
	506.06,264.86 505.47,266.23 504.77,267.6 503.97,268.96 503.08,270.33 502.11,271.7 501.07,273.07 499.97,274.44 498.82,275.81 
	497.63,277.18 496.41,278.55 495.17,279.92 493.92,281.29 492.67,282.66 491.44,284.03 490.23,285.4 489.06,286.77 487.93,288.14 
	486.84,289.51 485.82,290.88 484.85,292.25 483.95,293.62 483.12,294.99 482.35,296.36 481.65,297.73 481.01,299.1 480.43,300.47 
	479.89,301.84 479.4,303.21 478.94,304.57 478.51,305.94 478.1,307.31 477.7,308.68 477.3,310.05 476.89,311.42 476.47,312.79 
	476.04,314.16 475.59,315.53 475.11,316.9 474.61,318.27 474.08,319.64 473.54,321.01 472.97,322.38 472.39,323.75 471.79,325.12 
	471.19,326.49 470.58,327.86 469.98,329.23 469.38,330.6 468.8,331.97 468.24,333.34 467.69,334.71 467.18,336.08 466.69,337.45 
	466.23,338.82 465.8,340.18 465.41,341.55 465.05,342.92 464.72,344.29 464.43,345.66 "/>
<polygon fill="none" stroke="#3D3D3D" stroke-width="0.75" stroke-linejoin="round" stroke-miterlimit="10" points="464.16,347.03 
	461.04,347.03 460.77,345.66 460.48,344.29 460.15,342.92 459.79,341.55 459.4,340.18 458.97,338.82 458.51,337.45 458.02,336.08 
	457.51,334.71 456.96,333.34 456.4,331.97 455.82,330.6 455.22,329.23 454.62,327.86 454.01,326.49 453.41,325.12 452.81,323.75 
	452.23,322.38 451.66,321.01 451.12,319.64 450.59,318.27 450.09,316.9 449.61,315.53 449.16,314.16 448.73,312.79 448.31,311.42 
	447.9,310.05 447.5,308.68 447.1,307.31 446.69,305.94 446.26,304.57 445.8,303.21 445.31,301.84 444.77,300.47 444.19,299.1 
	443.55,297.73 442.85,296.36 442.08,294.99 441.25,293.62 440.35,292.25 439.38,290.88 438.36,289.51 437.27,288.14 436.14,286.77 
	434.97,285.4 433.76,284.03 432.53,282.66 431.28,281.29 430.03,279.92 428.79,278.55 427.57,277.18 426.38,275.81 425.23,274.44 
	424.13,273.07 423.09,271.7 422.12,270.33 421.23,268.96 420.43,267.6 419.73,266.23 419.14,264.86 418.65,263.49 418.29,262.12 
	418.06,260.75 417.96,259.38 418,258.01 418.18,256.64 418.51,255.27 418.99,253.9 419.62,252.53 420.39,251.16 421.31,249.79 
	422.37,248.42 423.56,247.05 424.88,245.68 426.31,244.31 427.83,242.94 429.45,241.57 431.14,240.2 432.89,238.83 434.67,237.46 
	436.48,236.09 438.29,234.72 440.1,233.35 441.88,231.98 443.62,230.62 445.3,229.25 446.93,227.88 448.47,226.51 449.94,225.14 
	451.31,223.77 452.6,222.4 453.78,221.03 454.87,219.66 455.87,218.29 456.77,216.92 457.58,215.55 458.3,214.18 458.94,212.81 
	459.5,211.44 465.7,211.44 466.26,212.81 466.9,214.18 467.62,215.55 468.43,216.92 469.33,218.29 470.33,219.66 471.42,221.03 
	472.6,222.4 473.89,223.77 475.26,225.14 476.73,226.51 478.27,227.88 479.9,229.25 481.58,230.62 483.32,231.98 485.1,233.35 
	486.91,234.72 488.72,236.09 490.53,237.46 492.31,238.83 494.06,240.2 495.75,241.57 497.37,242.94 498.89,244.31 500.32,245.68 
	501.64,247.05 502.83,248.42 503.89,249.79 504.81,251.16 505.58,252.53 506.21,253.9 506.69,255.27 507.02,256.64 507.2,258.01 
	507.24,259.38 507.14,260.75 506.91,262.12 506.55,263.49 506.06,264.86 505.47,266.23 504.77,267.6 503.97,268.96 503.08,270.33 
	502.11,271.7 501.07,273.07 499.97,274.44 498.82,275.81 497.63,277.18 496.41,278.55 495.17,279.92 493.92,281.29 492.67,282.66 
	491.44,284.03 490.23,285.4 489.06,286.77 487.93,288.14 486.84,289.51 485.82,290.88 484.85,292.25 483.95,293.62 483.12,294.99 
	482.35,296.36 481.65,297.73 481.01,299.1 480.43,300.47 479.89,301.84 479.4,303.21 478.94,304.57 478.51,305.94 478.1,307.31 
	477.7,308.68 477.3,310.05 476.89,311.42 476.47,312.79 476.04,314.16 475.59,315.53 475.11,316.9 474.61,318.27 474.08,319.64 
	473.54,321.01 472.97,322.38 472.39,323.75 471.79,325.12 471.19,326.49 470.58,327.86 469.98,329.23 469.38,330.6 468.8,331.97 
	468.24,333.34 467.69,334.71 467.18,336.08 466.69,337.45 466.23,338.82 465.8,340.18 465.41,341.55 465.05,342.92 464.72,344.29 
	464.43,345.66 "/>
<line x1="127.8" y1="378" x2="127.8" y2="381.5"/>
<line fill="none" stroke="#000000" stroke-linejoin="round" stroke-miterlimit="10" x1="127.8" y1="377" x2="127.8" y2="382.5"/>
<polygon points="112.19,385.3 118.35,385.3 118.35,386.13 115.76,386.13 115.76,392.59 114.77,392.59 114.77,386.13 112.19,386.13 
	"/>
<path d="M121.89,389.47v3.12h-0.9v-0.83c-0.21,0.34-0.47,0.58-0.77,0.73c-0.3,0.15-0.68,0.23-1.12,0.23c-0.56,0-1.01-0.15-1.34-0.46
	c-0.33-0.31-0.49-0.73-0.49-1.26c0-0.61,0.2-1.07,0.62-1.39c0.41-0.31,1.02-0.47,1.84-0.47h1.26v-0.09c0-0.41-0.14-0.73-0.41-0.96
	c-0.27-0.22-0.65-0.34-1.14-0.34c-0.32,0-0.62,0.04-0.92,0.12c-0.3,0.08-0.58,0.19-0.85,0.33v-0.83c0.32-0.12,0.64-0.22,0.95-0.28
	c0.31-0.06,0.61-0.1,0.91-0.1c0.79,0,1.38,0.21,1.77,0.62C121.69,388.02,121.89,388.64,121.89,389.47z M120.1,389.84
	c-0.73,0-1.23,0.09-1.51,0.25c-0.28,0.17-0.42,0.45-0.42,0.85c0,0.32,0.1,0.58,0.31,0.76c0.21,0.19,0.5,0.28,0.86,0.28
	c0.5,0,0.9-0.17,1.2-0.53c0.3-0.35,0.45-0.82,0.45-1.41v-0.2H120.1z"/>
<path d="M127.23,387.28v0.85c-0.26-0.12-0.52-0.22-0.79-0.29c-0.28-0.06-0.56-0.1-0.85-0.1c-0.45,0-0.79,0.07-1.01,0.21
	c-0.22,0.14-0.33,0.34-0.33,0.61c0,0.21,0.08,0.37,0.24,0.49c0.16,0.12,0.48,0.24,0.96,0.34l0.31,0.07
	c0.64,0.14,1.09,0.34,1.36,0.58c0.26,0.25,0.4,0.6,0.4,1.04c0,0.51-0.2,0.91-0.6,1.2c-0.4,0.3-0.96,0.44-1.66,0.44
	c-0.3,0-0.6-0.03-0.92-0.08c-0.32-0.05-0.65-0.13-1-0.25v-0.93c0.33,0.18,0.66,0.31,0.98,0.39c0.32,0.09,0.64,0.13,0.96,0.13
	c0.42,0,0.75-0.07,0.98-0.21c0.22-0.14,0.34-0.35,0.34-0.62c0-0.24-0.09-0.43-0.25-0.56c-0.16-0.13-0.52-0.26-1.08-0.38l-0.31-0.07
	c-0.56-0.12-0.97-0.3-1.21-0.54c-0.25-0.24-0.37-0.57-0.37-1c0-0.51,0.18-0.91,0.54-1.19s0.88-0.42,1.56-0.42
	c0.33,0,0.64,0.03,0.94,0.08C126.71,387.12,126.98,387.19,127.23,387.28z"/>
<polygon points="128.92,384.99 129.82,384.99 129.82,389.48 132.5,387.12 133.65,387.12 130.75,389.68 133.77,392.59 132.6,392.59 
	129.82,389.92 129.82,392.59 128.92,392.59 "/>
<polygon points="138.22,391.76 139.83,391.76 139.83,386.2 138.08,386.55 138.08,385.65 139.82,385.3 140.81,385.3 140.81,391.76 
	142.42,391.76 142.42,392.59 138.22,392.59 "/>
<line x1="239.4" y1="378" x2="239.4" y2="381.5"/>
<line fill="none" stroke="#000000" stroke-width="0.8" stroke-linejoin="round" stroke-miterlimit="10" x1="239.4" y1="378" x2="239.4" y2="381.5"/>
<polygon points="223.79,385.3 229.95,385.3 229.95,386.13 227.36,386.13 227.36,392.59 226.37,392.59 226.37,386.13 223.79,386.13 
	"/>
<path d="M233.49,389.47v3.12h-0.9v-0.83c-0.21,0.34-0.47,0.58-0.77,0.73s-0.68,0.23-1.12,0.23c-0.56,0-1.01-0.15-1.34-0.46
	c-0.33-0.31-0.49-0.73-0.49-1.26c0-0.61,0.2-1.07,0.62-1.39c0.41-0.31,1.02-0.47,1.84-0.47h1.26v-0.09c0-0.41-0.14-0.73-0.41-0.96
	c-0.27-0.22-0.65-0.34-1.14-0.34c-0.32,0-0.62,0.04-0.92,0.12c-0.3,0.08-0.58,0.19-0.85,0.33v-0.83c0.32-0.12,0.64-0.22,0.95-0.28
	s0.61-0.1,0.91-0.1c0.79,0,1.38,0.21,1.77,0.62S233.49,388.64,233.49,389.47z M231.7,389.84c-0.73,0-1.23,0.09-1.51,0.25
	c-0.28,0.17-0.42,0.45-0.42,0.85c0,0.32,0.1,0.58,0.31,0.76c0.21,0.19,0.5,0.28,0.86,0.28c0.5,0,0.9-0.17,1.2-0.53
	c0.3-0.35,0.45-0.82,0.45-1.41v-0.2H231.7z"/>
<path d="M238.83,387.28v0.85c-0.26-0.12-0.52-0.22-0.79-0.29c-0.28-0.06-0.56-0.1-0.85-0.1c-0.45,0-0.79,0.07-1.01,0.21
	c-0.22,0.14-0.33,0.34-0.33,0.61c0,0.21,0.08,0.37,0.24,0.49s0.48,0.24,0.96,0.34l0.31,0.07c0.64,0.14,1.09,0.34,1.36,0.58
	c0.26,0.25,0.4,0.6,0.4,1.04c0,0.51-0.2,0.91-0.6,1.2c-0.4,0.3-0.96,0.44-1.66,0.44c-0.3,0-0.6-0.03-0.92-0.08
	c-0.32-0.05-0.65-0.13-1-0.25v-0.93c0.33,0.18,0.66,0.31,0.98,0.39c0.32,0.09,0.64,0.13,0.96,0.13c0.42,0,0.75-0.07,0.98-0.21
	c0.22-0.14,0.34-0.35,0.34-0.62c0-0.24-0.09-0.43-0.25-0.56s-0.52-0.26-1.08-0.38l-0.31-0.07c-0.56-0.12-0.97-0.3-1.21-0.54
	c-0.25-0.24-0.37-0.57-0.37-1c0-0.51,0.18-0.91,0.54-1.19s0.88-0.42,1.56-0.42c0.33,0,0.64,0.03,0.94,0.08
	C238.31,387.12,238.58,387.19,238.83,387.28z"/>
<polygon points="240.52,384.99 241.42,384.99 241.42,389.48 244.1,387.12 245.25,387.12 242.35,389.68 245.37,392.59 244.2,392.59 
	241.42,389.92 241.42,392.59 240.52,392.59 "/>
<path d="M250.5,391.76h3.44v0.83h-4.63v-0.83c0.37-0.38,0.88-0.9,1.53-1.56c0.64-0.65,1.05-1.07,1.22-1.26
	c0.32-0.35,0.54-0.65,0.66-0.9c0.12-0.24,0.19-0.49,0.19-0.73c0-0.38-0.14-0.7-0.41-0.94s-0.62-0.37-1.06-0.37
	c-0.31,0-0.64,0.06-0.98,0.16c-0.34,0.11-0.71,0.27-1.1,0.49v-1c0.4-0.16,0.77-0.28,1.11-0.36c0.34-0.08,0.66-0.12,0.95-0.12
	c0.75,0,1.35,0.19,1.8,0.57s0.68,0.88,0.68,1.51c0,0.3-0.06,0.59-0.17,0.85c-0.11,0.27-0.31,0.59-0.61,0.95
	c-0.08,0.1-0.34,0.37-0.78,0.82C251.9,390.32,251.29,390.95,250.5,391.76z"/>
<line x1="351" y1="378" x2="351" y2="381.5"/>
<line fill="none" stroke="#000000" stroke-width="0.8" stroke-linejoin="round" stroke-miterlimit="10" x1="351" y1="378" x2="351" y2="381.5"/>
<polygon points="335.39,385.3 341.55,385.3 341.55,386.13 338.96,386.13 338.96,392.59 337.97,392.59 337.97,386.13 335.39,386.13 
	"/>
<path d="M345.09,389.47v3.12h-0.9v-0.83c-0.21,0.34-0.47,0.58-0.77,0.73c-0.3,0.15-0.68,0.23-1.12,0.23c-0.56,0-1.01-0.15-1.34-0.46
	c-0.33-0.31-0.49-0.73-0.49-1.26c0-0.61,0.2-1.07,0.62-1.39c0.41-0.31,1.02-0.47,1.84-0.47h1.26v-0.09c0-0.41-0.14-0.73-0.41-0.96
	c-0.27-0.22-0.65-0.34-1.14-0.34c-0.32,0-0.62,0.04-0.92,0.12c-0.3,0.08-0.58,0.19-0.85,0.33v-0.83c0.32-0.12,0.64-0.22,0.95-0.28
	s0.61-0.1,0.91-0.1c0.79,0,1.38,0.21,1.77,0.62C344.89,388.02,345.09,388.64,345.09,389.47z M343.3,389.84
	c-0.73,0-1.23,0.09-1.51,0.25c-0.28,0.17-0.42,0.45-0.42,0.85c0,0.32,0.1,0.58,0.31,0.76c0.21,0.19,0.5,0.28,0.86,0.28
	c0.5,0,0.9-0.17,1.2-0.53c0.3-0.35,0.45-0.82,0.45-1.41v-0.2H343.3z"/>
<path d="M350.43,387.28v0.85c-0.26-0.12-0.52-0.22-0.79-0.29c-0.28-0.06-0.56-0.1-0.85-0.1c-0.45,0-0.79,0.07-1.01,0.21
	c-0.22,0.14-0.33,0.34-0.33,0.61c0,0.21,0.08,0.37,0.24,0.49s0.48,0.24,0.96,0.34l0.31,0.07c0.64,0.14,1.09,0.34,1.36,0.58
	c0.26,0.25,0.4,0.6,0.4,1.04c0,0.51-0.2,0.91-0.6,1.2c-0.4,0.3-0.96,0.44-1.66,0.44c-0.3,0-0.6-0.03-0.92-0.08
	c-0.32-0.05-0.65-0.13-1-0.25v-0.93c0.33,0.18,0.66,0.31,0.98,0.39c0.32,0.09,0.64,0.13,0.96,0.13c0.42,0,0.75-0.07,0.98-0.21
	c0.22-0.14,0.34-0.35,0.34-0.62c0-0.24-0.09-0.43-0.25-0.56c-0.16-0.13-0.52-0.26-1.08-0.38l-0.31-0.07
	c-0.56-0.12-0.97-0.3-1.21-0.54c-0.25-0.24-0.37-0.57-0.37-1c0-0.51,0.18-0.91,0.54-1.19c0.36-0.28,0.88-0.42,1.56-0.42
	c0.33,0,0.64,0.03,0.94,0.08C349.91,387.12,350.18,387.19,350.43,387.28z"/>
<polygon points="352.12,384.99 353.02,384.99 353.02,389.48 355.7,387.12 356.85,387.12 353.95,389.68 356.97,392.59 355.8,392.59 
	353.02,389.92 353.02,392.59 352.12,392.59 "/>
<path d="M364.24,388.66c0.47,0.1,0.84,0.31,1.1,0.63c0.26,0.32,0.4,0.72,0.4,1.18c0,0.72-0.25,1.28-0.74,1.67
	c-0.5,0.39-1.2,0.58-2.11,0.58c-0.31,0-0.63-0.03-0.95-0.09c-0.32-0.05-0.66-0.14-1-0.26v-0.95c0.27,0.16,0.57,0.28,0.9,0.36
	c0.32,0.08,0.66,0.12,1.02,0.12c0.62,0,1.09-0.12,1.41-0.36c0.32-0.24,0.49-0.6,0.49-1.07c0-0.42-0.15-0.76-0.45-1
	c-0.3-0.24-0.72-0.37-1.26-0.37h-0.85v-0.81h0.89c0.48,0,0.85-0.09,1.11-0.29c0.26-0.19,0.39-0.47,0.39-0.84s-0.14-0.66-0.4-0.86
	c-0.27-0.2-0.65-0.3-1.14-0.3c-0.27,0-0.56,0.03-0.87,0.09s-0.65,0.15-1.02,0.27v-0.88c0.37-0.1,0.72-0.18,1.05-0.23
	c0.32-0.05,0.63-0.08,0.93-0.08c0.74,0,1.33,0.17,1.77,0.51s0.66,0.8,0.66,1.38c0,0.4-0.12,0.74-0.35,1.02
	C364.99,388.36,364.66,388.56,364.24,388.66z"/>
<line x1="462.6" y1="378" x2="462.6" y2="381.5"/>
<line fill="none" stroke="#000000" stroke-width="0.8" stroke-linejoin="round" stroke-miterlimit="10" x1="462.6" y1="378" x2="462.6" y2="381.5"/>
<polygon points="446.99,385.3 453.15,385.3 453.15,386.13 450.56,386.13 450.56,392.59 449.57,392.59 449.57,386.13 446.99,386.13 
	"/>
<path d="M456.69,389.47v3.12h-0.9v-0.83c-0.21,0.34-0.47,0.58-0.77,0.73c-0.3,0.15-0.68,0.23-1.12,0.23c-0.56,0-1.01-0.15-1.34-0.46
	c-0.33-0.31-0.49-0.73-0.49-1.26c0-0.61,0.2-1.07,0.62-1.39c0.41-0.31,1.02-0.47,1.84-0.47h1.26v-0.09c0-0.41-0.14-0.73-0.41-0.96
	c-0.27-0.22-0.65-0.34-1.14-0.34c-0.32,0-0.62,0.04-0.92,0.12c-0.3,0.08-0.58,0.19-0.85,0.33v-0.83c0.32-0.12,0.64-0.22,0.95-0.28
	s0.61-0.1,0.91-0.1c0.79,0,1.38,0.21,1.77,0.62C456.49,388.02,456.69,388.64,456.69,389.47z M454.9,389.84
	c-0.73,0-1.23,0.09-1.51,0.25c-0.28,0.17-0.42,0.45-0.42,0.85c0,0.32,0.1,0.58,0.31,0.76c0.21,0.19,0.5,0.28,0.86,0.28
	c0.5,0,0.9-0.17,1.2-0.53c0.3-0.35,0.45-0.82,0.45-1.41v-0.2H454.9z"/>
<path d="M462.03,387.28v0.85c-0.26-0.12-0.52-0.22-0.79-0.29c-0.28-0.06-0.56-0.1-0.85-0.1c-0.45,0-0.79,0.07-1.01,0.21
	c-0.22,0.14-0.33,0.34-0.33,0.61c0,0.21,0.08,0.37,0.24,0.49s0.48,0.24,0.96,0.34l0.31,0.07c0.64,0.14,1.09,0.34,1.36,0.58
	c0.26,0.25,0.4,0.6,0.4,1.04c0,0.51-0.2,0.91-0.6,1.2c-0.4,0.3-0.96,0.44-1.66,0.44c-0.3,0-0.6-0.03-0.92-0.08
	c-0.32-0.05-0.65-0.13-1-0.25v-0.93c0.33,0.18,0.66,0.31,0.98,0.39c0.32,0.09,0.64,0.13,0.96,0.13c0.42,0,0.75-0.07,0.98-0.21
	c0.22-0.14,0.34-0.35,0.34-0.62c0-0.24-0.09-0.43-0.25-0.56c-0.16-0.13-0.52-0.26-1.08-0.38l-0.31-0.07
	c-0.56-0.12-0.97-0.3-1.21-0.54c-0.25-0.24-0.37-0.57-0.37-1c0-0.51,0.18-0.91,0.54-1.19c0.36-0.28,0.88-0.42,1.56-0.42
	c0.33,0,0.64,0.03,0.94,0.08C461.51,387.12,461.78,387.19,462.03,387.28z"/>
<polygon points="463.72,384.99 464.62,384.99 464.62,389.48 467.3,387.12 468.45,387.12 465.55,389.68 468.57,392.59 467.4,392.59 
	464.62,389.92 464.62,392.59 463.72,392.59 "/>
<path d="M475.3,385.3h1.24v4.75h1.04v0.82h-1.04v1.72h-0.98v-1.72h-3.29v-0.95L475.3,385.3z M475.56,386.16l-2.49,3.89h2.49V386.16z
	"/>
<line x1="72" y1="365.5" x2="68.5" y2="365.5"/>
<line fill="none" stroke="#000000" stroke-width="0.8" stroke-linejoin="round" stroke-miterlimit="10" x1="72" y1="365.5" x2="68.5" y2="365.5"/>
<path d="M69.82,354.88c0.81,0,1.43,0.33,1.87,0.97c0.43,0.65,0.65,1.59,0.65,2.81c0,1.23-0.22,2.17-0.65,2.81
	c-0.44,0.64-1.06,0.96-1.88,0.96c-0.82,0-1.44-0.32-1.87-0.96c-0.43-0.64-0.64-1.58-0.64-2.81c0-1.22,0.21-2.16,0.64-2.81
	C68.37,355.21,69,354.88,69.82,354.88z M69.82,355.66c-0.51,0-0.89,0.25-1.15,0.75c-0.26,0.5-0.38,1.25-0.38,2.25
	s0.12,1.75,0.38,2.25c0.26,0.5,0.64,0.75,1.15,0.75s0.89-0.25,1.15-0.75c0.25-0.5,0.38-1.25,0.38-2.25s-0.13-1.75-0.38-2.25
	C70.71,355.91,70.33,355.66,69.82,355.66z"/>
<line x1="72" y1="312.42" x2="68.5" y2="312.42"/>
<line fill="none" stroke="#000000" stroke-width="0.8" stroke-linejoin="round" stroke-miterlimit="10" x1="72" y1="312.42" x2="68.5" y2="312.42"/>
<path d="M62.2,308.38h3.44v0.83h-4.63v-0.83c0.37-0.38,0.88-0.9,1.53-1.56c0.64-0.65,1.05-1.07,1.22-1.26
	c0.32-0.35,0.54-0.65,0.66-0.9c0.12-0.24,0.19-0.49,0.19-0.73c0-0.38-0.14-0.7-0.41-0.94c-0.27-0.24-0.62-0.37-1.06-0.37
	c-0.31,0-0.64,0.06-0.98,0.16c-0.34,0.11-0.71,0.27-1.1,0.49v-1c0.4-0.16,0.77-0.28,1.11-0.36s0.66-0.12,0.95-0.12
	c0.75,0,1.35,0.19,1.8,0.57c0.45,0.38,0.68,0.88,0.68,1.51c0,0.3-0.06,0.59-0.17,0.85c-0.11,0.27-0.31,0.59-0.61,0.95
	c-0.08,0.1-0.34,0.37-0.78,0.82C63.6,306.94,62.99,307.57,62.2,308.38z"/>
<path d="M69.82,301.79c0.81,0,1.43,0.33,1.87,0.97c0.43,0.65,0.65,1.59,0.65,2.81c0,1.23-0.22,2.17-0.65,2.81
	c-0.44,0.64-1.06,0.96-1.88,0.96c-0.82,0-1.44-0.32-1.87-0.96c-0.43-0.64-0.64-1.58-0.64-2.81c0-1.22,0.21-2.16,0.64-2.81
	C68.37,302.12,69,301.79,69.82,301.79z M69.82,302.57c-0.51,0-0.89,0.25-1.15,0.75c-0.26,0.5-0.38,1.25-0.38,2.25
	s0.12,1.75,0.38,2.25c0.26,0.5,0.64,0.75,1.15,0.75s0.89-0.25,1.15-0.75c0.25-0.5,0.38-1.25,0.38-2.25s-0.13-1.75-0.38-2.25
	C70.71,302.82,70.33,302.57,69.82,302.57z"/>
<line x1="72" y1="259.33" x2="68.5" y2="259.33"/>
<line fill="none" stroke="#000000" stroke-width="0.8" stroke-linejoin="round" stroke-miterlimit="10" x1="72" y1="259.33" x2="68.5" y2="259.33"/>
<path d="M63.8,248.84h1.24v4.75h1.04v0.82h-1.04v1.72h-0.98v-1.72h-3.29v-0.95L63.8,248.84z M64.06,249.7l-2.49,3.89h2.49V249.7z"/>
<path d="M69.82,248.71c0.81,0,1.43,0.33,1.87,0.97c0.43,0.65,0.65,1.59,0.65,2.81c0,1.23-0.22,2.17-0.65,2.81
	c-0.44,0.64-1.06,0.96-1.88,0.96c-0.82,0-1.44-0.32-1.87-0.96s-0.64-1.58-0.64-2.81c0-1.22,0.21-2.16,0.64-2.81
	C68.37,249.04,69,248.71,69.82,248.71z M69.82,249.49c-0.51,0-0.89,0.25-1.15,0.75c-0.26,0.5-0.38,1.25-0.38,2.25
	s0.12,1.75,0.38,2.25c0.26,0.5,0.64,0.75,1.15,0.75s0.89-0.25,1.15-0.75c0.25-0.5,0.38-1.25,0.38-2.25s-0.13-1.75-0.38-2.25
	C70.71,249.74,70.33,249.49,69.82,249.49z"/>
<line x1="72" y1="206.24" x2="68.5" y2="206.24"/>
<line fill="none" stroke="#000000" stroke-width="0.8" stroke-linejoin="round" stroke-miterlimit="10" x1="72" y1="206.24" x2="68.5" y2="206.24"/>
<path d="M65.54,195.91v0.9c-0.25-0.12-0.5-0.21-0.75-0.27c-0.26-0.06-0.51-0.09-0.75-0.09c-0.66,0-1.16,0.22-1.5,0.66
	c-0.34,0.44-0.54,1.11-0.58,1.99c0.19-0.28,0.43-0.5,0.72-0.65c0.29-0.15,0.61-0.23,0.96-0.23c0.73,0,1.31,0.23,1.73,0.67
	c0.42,0.44,0.64,1.05,0.64,1.81c0,0.75-0.23,1.35-0.67,1.8c-0.44,0.45-1.03,0.67-1.76,0.67c-0.84,0-1.49-0.32-1.93-0.96
	c-0.45-0.64-0.67-1.58-0.67-2.81c0-1.15,0.27-2.07,0.82-2.75c0.54-0.68,1.28-1.03,2.2-1.03c0.24,0,0.49,0.03,0.75,0.07
	C65,195.74,65.26,195.81,65.54,195.91z M63.58,199c-0.44,0-0.79,0.16-1.05,0.46c-0.26,0.3-0.39,0.72-0.39,1.24
	c0,0.53,0.13,0.95,0.39,1.25c0.26,0.3,0.61,0.45,1.05,0.45c0.44,0,0.79-0.15,1.05-0.45c0.26-0.3,0.39-0.72,0.39-1.25
	c0-0.52-0.13-0.94-0.39-1.24C64.37,199.16,64.02,199,63.58,199z"/>
<path d="M69.82,195.62c0.81,0,1.43,0.33,1.87,0.97c0.43,0.65,0.65,1.59,0.65,2.81c0,1.23-0.22,2.17-0.65,2.81
	c-0.44,0.64-1.06,0.96-1.88,0.96c-0.82,0-1.44-0.32-1.87-0.96s-0.64-1.58-0.64-2.81c0-1.22,0.21-2.16,0.64-2.81
	C68.37,195.95,69,195.62,69.82,195.62z M69.82,196.4c-0.51,0-0.89,0.25-1.15,0.75c-0.26,0.5-0.38,1.25-0.38,2.25
	s0.12,1.75,0.38,2.25c0.26,0.5,0.64,0.75,1.15,0.75s0.89-0.25,1.15-0.75c0.25-0.5,0.38-1.25,0.38-2.25s-0.13-1.75-0.38-2.25
	C70.71,196.65,70.33,196.4,69.82,196.4z"/>
<line x1="72" y1="153.15" x2="68.5" y2="153.15"/>
<line fill="none" stroke="#000000" stroke-width="0.8" stroke-linejoin="round" stroke-miterlimit="10" x1="72" y1="153.15" x2="68.5" y2="153.15"/>
<path d="M62.11,144.51c0,0.38,0.11,0.68,0.35,0.89c0.24,0.21,0.57,0.31,1,0.31c0.42,0,0.75-0.1,0.99-0.31
	c0.24-0.21,0.36-0.51,0.36-0.89s-0.12-0.67-0.36-0.88c-0.24-0.21-0.57-0.32-0.99-0.32c-0.43,0-0.76,0.11-1,0.32
	C62.22,143.84,62.11,144.13,62.11,144.51z M62.47,146.07c-0.42-0.1-0.75-0.3-0.99-0.59c-0.24-0.29-0.35-0.64-0.35-1.06
	c0-0.58,0.2-1.04,0.62-1.38c0.41-0.34,0.98-0.51,1.71-0.51c0.72,0,1.29,0.17,1.71,0.51c0.41,0.34,0.62,0.8,0.62,1.38
	c0,0.42-0.12,0.77-0.36,1.06s-0.56,0.49-0.98,0.59c0.47,0.11,0.84,0.33,1.11,0.65c0.26,0.32,0.4,0.72,0.4,1.18
	c0,0.71-0.22,1.25-0.65,1.62c-0.44,0.38-1.06,0.56-1.86,0.56c-0.8,0-1.42-0.18-1.85-0.56c-0.43-0.37-0.64-0.91-0.64-1.62
	c0-0.46,0.13-0.86,0.4-1.18C61.62,146.4,61.99,146.18,62.47,146.07z M63.46,146.49c-0.47,0-0.84,0.13-1.11,0.38s-0.4,0.59-0.4,1.03
	s0.13,0.79,0.4,1.04s0.64,0.37,1.11,0.37c0.46,0,0.83-0.12,1.1-0.38c0.27-0.25,0.41-0.59,0.41-1.03s-0.14-0.78-0.4-1.03
	C64.3,146.62,63.93,146.49,63.46,146.49z"/>
<path d="M69.82,142.53c0.81,0,1.43,0.33,1.87,0.97c0.43,0.65,0.65,1.59,0.65,2.81c0,1.23-0.22,2.17-0.65,2.81
	c-0.44,0.64-1.06,0.96-1.88,0.96c-0.82,0-1.44-0.32-1.87-0.96c-0.43-0.64-0.64-1.58-0.64-2.81c0-1.22,0.21-2.16,0.64-2.81
	C68.37,142.86,69,142.53,69.82,142.53z M69.82,143.31c-0.51,0-0.89,0.25-1.15,0.75c-0.26,0.5-0.38,1.25-0.38,2.25
	s0.12,1.75,0.38,2.25c0.26,0.5,0.64,0.75,1.15,0.75s0.89-0.25,1.15-0.75c0.25-0.5,0.38-1.25,0.38-2.25s-0.13-1.75-0.38-2.25
	C70.71,143.56,70.33,143.31,69.82,143.31z"/>
<line x1="72" y1="100.07" x2="68.5" y2="100.07"/>
<line fill="none" stroke="#000000" stroke-width="0.8" stroke-linejoin="round" stroke-miterlimit="10" x1="72" y1="100.07" x2="68.5" y2="100.07"/>
<line fill="none" stroke="#000000" stroke-width="0.8" stroke-linejoin="round" stroke-miterlimit="10" x1="72" y1="46.98" x2="68.5" y2="46.98"/>
<polygon points="55.16,96.03 56.77,96.03 56.77,90.47 55.02,90.82 55.02,89.92 56.76,89.57 57.75,89.57 57.75,96.03 59.36,96.03 
	59.36,96.86 55.16,96.86 "/>
<polygon points="55.16,42.8 56.77,42.8 56.77,37.24 55.02,37.59 55.02,36.69 56.76,36.34 57.75,36.34 57.75,42.8 59.36,42.8 
	59.36,43.63 55.16,43.63 "/>
<path d="M62.2,42.8h3.44v0.83h-4.63V42.8c0.37-0.38,0.88-0.9,1.53-1.56c0.64-0.65,1.05-1.07,1.22-1.26c0.32-0.35,0.54-0.65,0.66-0.9
	c0.12-0.24,0.19-0.49,0.19-0.73c0-0.38-0.14-0.7-0.41-0.94c-0.27-0.24-0.62-0.37-1.06-0.37c-0.31,0-0.64,0.06-0.98,0.16
	c-0.34,0.11-0.71,0.27-1.1,0.49v-1c0.4-0.16,0.77-0.28,1.11-0.36c0.34-0.08,0.66-0.12,0.95-0.12c0.75,0,1.35,0.19,1.8,0.57
	c0.45,0.38,0.68,0.88,0.68,1.51c0,0.3-0.06,0.59-0.17,0.85c-0.11,0.27-0.31,0.59-0.61,0.95c-0.08,0.1-0.34,0.37-0.78,0.82
	C63.6,41.36,62.99,41.99,62.2,42.8z"/>
<polygon points="47.16,-215.79 48.77,-215.79 48.77,-221.35 47.02,-221 47.02,-221.9 48.76,-222.25 49.75,-222.25 49.75,-215.79 
	51.36,-215.79 51.36,-214.96 47.16,-214.96 "/>
<path d="M63.46,89.44c0.81,0,1.43,0.33,1.87,0.97c0.43,0.65,0.65,1.59,0.65,2.81c0,1.23-0.22,2.17-0.65,2.81
	c-0.44,0.64-1.06,0.96-1.88,0.96c-0.82,0-1.44-0.32-1.87-0.96c-0.43-0.64-0.64-1.58-0.64-2.81c0-1.22,0.21-2.16,0.64-2.81
	C62.01,89.77,62.64,89.44,63.46,89.44z M63.46,90.22c-0.51,0-0.89,0.25-1.15,0.75c-0.26,0.5-0.38,1.25-0.38,2.25
	s0.12,1.75,0.38,2.25c0.26,0.5,0.64,0.75,1.15,0.75c0.51,0,0.89-0.25,1.15-0.75c0.25-0.5,0.38-1.25,0.38-2.25s-0.13-1.75-0.38-2.25
	C64.35,90.47,63.97,90.22,63.46,90.22z"/>
<path d="M69.82,89.44c0.81,0,1.43,0.33,1.87,0.97c0.43,0.65,0.65,1.59,0.65,2.81c0,1.23-0.22,2.17-0.65,2.81
	c-0.44,0.64-1.06,0.96-1.88,0.96c-0.82,0-1.44-0.32-1.87-0.96c-0.43-0.64-0.64-1.58-0.64-2.81c0-1.22,0.21-2.16,0.64-2.81
	C68.37,89.77,69,89.44,69.82,89.44z M69.82,90.22c-0.51,0-0.89,0.25-1.15,0.75c-0.26,0.5-0.38,1.25-0.38,2.25s0.12,1.75,0.38,2.25
	c0.26,0.5,0.64,0.75,1.15,0.75s0.89-0.25,1.15-0.75c0.25-0.5,0.38-1.25,0.38-2.25s-0.13-1.75-0.38-2.25
	C70.71,90.47,70.33,90.22,69.82,90.22z"/>
<path d="M69.82,36.14c0.81,0,1.43,0.33,1.87,0.97c0.43,0.65,0.65,1.59,0.65,2.81c0,1.23-0.22,2.17-0.65,2.81
	c-0.44,0.64-1.06,0.96-1.88,0.96c-0.82,0-1.44-0.32-1.87-0.96c-0.43-0.64-0.64-1.58-0.64-2.81c0-1.22,0.21-2.16,0.64-2.81
	C68.37,36.47,69,36.14,69.82,36.14z M69.82,36.92c-0.51,0-0.89,0.25-1.15,0.75c-0.26,0.5-0.38,1.25-0.38,2.25s0.12,1.75,0.38,2.25
	c0.26,0.5,0.64,0.75,1.15,0.75s0.89-0.25,1.15-0.75c0.25-0.5,0.38-1.25,0.38-2.25s-0.13-1.75-0.38-2.25
	C70.71,37.17,70.33,36.92,69.82,36.92z"/>
<line fill="none" stroke="#3D3D3D" stroke-width="1.5" stroke-linecap="square" stroke-linejoin="round" stroke-miterlimit="10" x1="127.8" y1="272.6" x2="127.8" y2="206.24"/>
<line fill="none" stroke="#3D3D3D" stroke-width="4.5" stroke-linecap="square" stroke-linejoin="round" stroke-miterlimit="10" x1="127.8" y1="265.97" x2="127.8" y2="237.43"/>
<line fill="none" stroke="#3D3D3D" stroke-width="1.5" stroke-linecap="square" stroke-linejoin="round" stroke-miterlimit="10" x1="239.4" y1="267.29" x2="239.4" y2="134.57"/>
<line fill="none" stroke="#3D3D3D" stroke-width="4.5" stroke-linecap="square" stroke-linejoin="round" stroke-miterlimit="10" x1="239.4" y1="230.13" x2="239.4" y2="174.39"/>
<line fill="none" stroke="#3D3D3D" stroke-width="1.5" stroke-linecap="square" stroke-linejoin="round" stroke-miterlimit="10" x1="351" y1="320.38" x2="351" y2="246.06"/>
<line fill="none" stroke="#3D3D3D" stroke-width="4.5" stroke-linecap="square" stroke-linejoin="round" stroke-miterlimit="10" x1="351" y1="309.1" x2="351" y2="266.63"/>
<line fill="none" stroke="#3D3D3D" stroke-width="1.5" stroke-linecap="square" stroke-linejoin="round" stroke-miterlimit="10" x1="462.6" y1="312.42" x2="462.6" y2="246.06"/>
<line fill="none" stroke="#3D3D3D" stroke-width="4.5" stroke-linecap="square" stroke-linejoin="round" stroke-miterlimit="10" x1="462.6" y1="276.58" x2="462.6" y2="250.7"/>
<path fill="#FFFFFF" d="M127.8,258.17c0.4,0,0.78-0.16,1.06-0.44c0.28-0.28,0.44-0.66,0.44-1.06c0-0.4-0.16-0.78-0.44-1.06
	c-0.28-0.28-0.66-0.44-1.06-0.44c-0.4,0-0.78,0.16-1.06,0.44c-0.28,0.28-0.44,0.66-0.44,1.06c0,0.4,0.16,0.78,0.44,1.06
	C127.02,258.02,127.4,258.17,127.8,258.17z"/>
<path fill="none" stroke="#3D3D3D" stroke-linejoin="round" stroke-miterlimit="10" d="M127.8,258.17c0.4,0,0.78-0.16,1.06-0.44
	c0.28-0.28,0.44-0.66,0.44-1.06c0-0.4-0.16-0.78-0.44-1.06c-0.28-0.28-0.66-0.44-1.06-0.44c-0.4,0-0.78,0.16-1.06,0.44
	c-0.28,0.28-0.44,0.66-0.44,1.06c0,0.4,0.16,0.78,0.44,1.06C127.02,258.02,127.4,258.17,127.8,258.17z"/>
<path fill="#FFFFFF" d="M239.4,219.69c0.4,0,0.78-0.16,1.06-0.44c0.28-0.28,0.44-0.66,0.44-1.06c0-0.4-0.16-0.78-0.44-1.06
	s-0.66-0.44-1.06-0.44c-0.4,0-0.78,0.16-1.06,0.44s-0.44,0.66-0.44,1.06c0,0.4,0.16,0.78,0.44,1.06
	C238.62,219.53,239,219.69,239.4,219.69z"/>
<path fill="none" stroke="#3D3D3D" stroke-linejoin="round" stroke-miterlimit="10" d="M239.4,219.69c0.4,0,0.78-0.16,1.06-0.44
	c0.28-0.28,0.44-0.66,0.44-1.06c0-0.4-0.16-0.78-0.44-1.06s-0.66-0.44-1.06-0.44c-0.4,0-0.78,0.16-1.06,0.44s-0.44,0.66-0.44,1.06
	c0,0.4,0.16,0.78,0.44,1.06C238.62,219.53,239,219.69,239.4,219.69z"/>
<path fill="#FFFFFF" d="M351,303.3c0.4,0,0.78-0.16,1.06-0.44c0.28-0.28,0.44-0.66,0.44-1.06c0-0.4-0.16-0.78-0.44-1.06
	c-0.28-0.28-0.66-0.44-1.06-0.44s-0.78,0.16-1.06,0.44c-0.28,0.28-0.44,0.66-0.44,1.06c0,0.4,0.16,0.78,0.44,1.06
	C350.22,303.14,350.6,303.3,351,303.3z"/>
<path fill="none" stroke="#3D3D3D" stroke-linejoin="round" stroke-miterlimit="10" d="M351,303.3c0.4,0,0.78-0.16,1.06-0.44
	c0.28-0.28,0.44-0.66,0.44-1.06c0-0.4-0.16-0.78-0.44-1.06c-0.28-0.28-0.66-0.44-1.06-0.44s-0.78,0.16-1.06,0.44
	c-0.28,0.28-0.44,0.66-0.44,1.06c0,0.4,0.16,0.78,0.44,1.06C350.22,303.14,350.6,303.3,351,303.3z"/>
<path fill="#FFFFFF" d="M462.6,266.14c0.4,0,0.78-0.16,1.06-0.44c0.28-0.28,0.44-0.66,0.44-1.06c0-0.4-0.16-0.78-0.44-1.06
	c-0.28-0.28-0.66-0.44-1.06-0.44s-0.78,0.16-1.06,0.44s-0.44,0.66-0.44,1.06c0,0.4,0.16,0.78,0.44,1.06
	C461.82,265.98,462.2,266.14,462.6,266.14z"/>
<path fill="none" stroke="#3D3D3D" stroke-linejoin="round" stroke-miterlimit="10" d="M462.6,266.14c0.4,0,0.78-0.16,1.06-0.44
	c0.28-0.28,0.44-0.66,0.44-1.06c0-0.4-0.16-0.78-0.44-1.06c-0.28-0.28-0.66-0.44-1.06-0.44s-0.78,0.16-1.06,0.44
	s-0.44,0.66-0.44,1.06c0,0.4,0.16,0.78,0.44,1.06C461.82,265.98,462.2,266.14,462.6,266.14z"/>
<g>
	<defs>
		<rect id="SVGID_1_" x="114.91" y="259.48" width="5" height="5"/>
	</defs>
	<clipPath id="SVGID_00000010273633945914096040000005040281894800663476_">
		<use xlink:href="#SVGID_1_"  overflow="visible"/>
	</clipPath>
	<path clip-path="url(#SVGID_00000010273633945914096040000005040281894800663476_)" fill="#49AD33" d="M117.41,264.48
		c0.66,0,1.3-0.26,1.77-0.73c0.47-0.47,0.73-1.1,0.73-1.77c0-0.66-0.26-1.3-0.73-1.77s-1.1-0.73-1.77-0.73s-1.3,0.26-1.77,0.73
		s-0.73,1.1-0.73,1.77c0,0.66,0.26,1.3,0.73,1.77C116.11,264.22,116.74,264.48,117.41,264.48z"/>
</g>
<g>
	<defs>
		<rect id="SVGID_00000093137255203612778750000002695634131859810461_" x="118.81" y="248.87" width="5" height="5"/>
	</defs>
	<clipPath id="SVGID_00000069395429002769092810000000149345229171321235_">
		<use xlink:href="#SVGID_00000093137255203612778750000002695634131859810461_"  overflow="visible"/>
	</clipPath>
	<path clip-path="url(#SVGID_00000069395429002769092810000000149345229171321235_)" fill="#49AD33" d="M121.31,253.87
		c0.66,0,1.3-0.26,1.77-0.73c0.47-0.47,0.73-1.1,0.73-1.77s-0.26-1.3-0.73-1.77c-0.47-0.47-1.1-0.73-1.77-0.73s-1.3,0.26-1.77,0.73
		c-0.47,0.47-0.73,1.1-0.73,1.77s0.26,1.3,0.73,1.77C120.01,253.6,120.65,253.87,121.31,253.87z"/>
</g>
<g>
	<defs>
		<rect id="SVGID_00000057112758893786882250000016449207385450360509_" x="133.45" y="230.29" width="5" height="5"/>
	</defs>
	<clipPath id="SVGID_00000037677738320488838370000009846021024775948950_">
		<use xlink:href="#SVGID_00000057112758893786882250000016449207385450360509_"  overflow="visible"/>
	</clipPath>
	<path clip-path="url(#SVGID_00000037677738320488838370000009846021024775948950_)" fill="#49AD33" d="M135.95,235.29
		c0.66,0,1.3-0.26,1.77-0.73c0.47-0.47,0.73-1.1,0.73-1.77s-0.26-1.3-0.73-1.77c-0.47-0.47-1.1-0.73-1.77-0.73s-1.3,0.26-1.77,0.73
		c-0.47,0.47-0.73,1.1-0.73,1.77s0.26,1.3,0.73,1.77C134.65,235.02,135.29,235.29,135.95,235.29z"/>
</g>
<g>
	<defs>
		<rect id="SVGID_00000070080398161606631750000013607298184863676801_" x="118.09" y="270.1" width="5" height="5"/>
	</defs>
	<clipPath id="SVGID_00000112591425247555777830000010859754415241296512_">
		<use xlink:href="#SVGID_00000070080398161606631750000013607298184863676801_"  overflow="visible"/>
	</clipPath>
	<path clip-path="url(#SVGID_00000112591425247555777830000010859754415241296512_)" fill="#49AD33" d="M120.59,275.1
		c0.66,0,1.3-0.26,1.77-0.73c0.47-0.47,0.73-1.1,0.73-1.77s-0.26-1.3-0.73-1.77c-0.47-0.47-1.1-0.73-1.77-0.73s-1.3,0.26-1.77,0.73
		c-0.47,0.47-0.73,1.1-0.73,1.77s0.26,1.3,0.73,1.77C119.29,274.84,119.92,275.1,120.59,275.1z"/>
</g>
<path fill="#FF2B00" d="M125.92,208.74c0.66,0,1.3-0.26,1.77-0.73c0.47-0.47,0.73-1.1,0.73-1.77s-0.26-1.3-0.73-1.77
	c-0.47-0.47-1.1-0.73-1.77-0.73s-1.3,0.26-1.77,0.73c-0.47,0.47-0.73,1.1-0.73,1.77s0.26,1.3,0.73,1.77
	C124.62,208.48,125.26,208.74,125.92,208.74z"/>
<rect x="123.42" y="203.74" fill="none" width="5" height="5"/>
<g>
	<defs>
		<rect id="SVGID_00000137813863401230138420000001080884581290153914_" x="124.8" y="264.79" width="5" height="5"/>
	</defs>
	<clipPath id="SVGID_00000086653379515334825040000013731735495619683241_">
		<use xlink:href="#SVGID_00000137813863401230138420000001080884581290153914_"  overflow="visible"/>
	</clipPath>
	<path clip-path="url(#SVGID_00000086653379515334825040000013731735495619683241_)" fill="#49AD33" d="M127.3,269.79
		c0.66,0,1.3-0.26,1.77-0.73c0.47-0.47,0.73-1.1,0.73-1.77s-0.26-1.3-0.73-1.77c-0.47-0.47-1.1-0.73-1.77-0.73s-1.3,0.26-1.77,0.73
		c-0.47,0.47-0.73,1.1-0.73,1.77s0.26,1.3,0.73,1.77C126,269.53,126.63,269.79,127.3,269.79z"/>
</g>
<g>
	<defs>
		<rect id="SVGID_00000097498364201204576270000010197889454797231793_" x="236.25" y="264.79" width="5" height="5"/>
	</defs>
	<clipPath id="SVGID_00000152240935686794127360000009012755628171666591_">
		<use xlink:href="#SVGID_00000097498364201204576270000010197889454797231793_"  overflow="visible"/>
	</clipPath>
	<path clip-path="url(#SVGID_00000152240935686794127360000009012755628171666591_)" fill="#FF7F0E" d="M238.75,269.79
		c0.66,0,1.3-0.26,1.77-0.73c0.47-0.47,0.73-1.1,0.73-1.77c0-0.66-0.26-1.3-0.73-1.77c-0.47-0.47-1.1-0.73-1.77-0.73
		s-1.3,0.26-1.77,0.73c-0.47,0.47-0.73,1.1-0.73,1.77c0,0.66,0.26,1.3,0.73,1.77C237.45,269.53,238.09,269.79,238.75,269.79z"/>
</g>
<g>
	<defs>
		<rect id="SVGID_00000091016329421575507940000015089801014324336033_" x="239.77" y="227.63" width="5" height="5"/>
	</defs>
	<clipPath id="SVGID_00000067919114624896082000000002298850802762366893_">
		<use xlink:href="#SVGID_00000091016329421575507940000015089801014324336033_"  overflow="visible"/>
	</clipPath>
	<path clip-path="url(#SVGID_00000067919114624896082000000002298850802762366893_)" fill="#FF2B00" d="M242.27,232.63
		c0.66,0,1.3-0.26,1.77-0.73c0.47-0.47,0.73-1.1,0.73-1.77s-0.26-1.3-0.73-1.77c-0.47-0.47-1.1-0.73-1.77-0.73s-1.3,0.26-1.77,0.73
		c-0.47,0.47-0.73,1.1-0.73,1.77s0.26,1.3,0.73,1.77C240.97,232.37,241.61,232.63,242.27,232.63z"/>
</g>
<g>
	<defs>
		<rect id="SVGID_00000160880775952298007190000000253526974372072630_" x="243.49" y="227.63" width="5" height="5"/>
	</defs>
	<clipPath id="SVGID_00000154408939934971465760000012173186743601080229_">
		<use xlink:href="#SVGID_00000160880775952298007190000000253526974372072630_"  overflow="visible"/>
	</clipPath>
	<path clip-path="url(#SVGID_00000154408939934971465760000012173186743601080229_)" fill="#FF7F0E" d="M245.99,232.63
		c0.66,0,1.3-0.26,1.77-0.73c0.47-0.47,0.73-1.1,0.73-1.77s-0.26-1.3-0.73-1.77c-0.47-0.47-1.1-0.73-1.77-0.73s-1.3,0.26-1.77,0.73
		c-0.47,0.47-0.73,1.1-0.73,1.77s0.26,1.3,0.73,1.77C244.69,232.37,245.32,232.63,245.99,232.63z"/>
</g>
<g>
	<defs>
		<rect id="SVGID_00000021096972120138695970000003560891758986966150_" x="231.32" y="203.74" width="5" height="5"/>
	</defs>
	<clipPath id="SVGID_00000009563399445161732340000011715757740280725403_">
		<use xlink:href="#SVGID_00000021096972120138695970000003560891758986966150_"  overflow="visible"/>
	</clipPath>
	<path clip-path="url(#SVGID_00000009563399445161732340000011715757740280725403_)" fill="#FF7F0E" d="M233.82,208.74
		c0.66,0,1.3-0.26,1.77-0.73c0.47-0.47,0.73-1.1,0.73-1.77s-0.26-1.3-0.73-1.77c-0.47-0.47-1.1-0.73-1.77-0.73s-1.3,0.26-1.77,0.73
		c-0.47,0.47-0.73,1.1-0.73,1.77s0.26,1.3,0.73,1.77C232.52,208.48,233.15,208.74,233.82,208.74z"/>
</g>
<g>
	<defs>
		<rect id="SVGID_00000016076297901184544420000009939227971288022191_" x="228.25" y="161.27" width="5" height="5"/>
	</defs>
	<clipPath id="SVGID_00000146467643857097854180000004758085746279665563_">
		<use xlink:href="#SVGID_00000016076297901184544420000009939227971288022191_"  overflow="visible"/>
	</clipPath>
	<path clip-path="url(#SVGID_00000146467643857097854180000004758085746279665563_)" fill="#FF7F0E" d="M230.75,166.27
		c0.66,0,1.3-0.26,1.77-0.73c0.47-0.47,0.73-1.1,0.73-1.77s-0.26-1.3-0.73-1.77c-0.47-0.47-1.1-0.73-1.77-0.73s-1.3,0.26-1.77,0.73
		c-0.47,0.47-0.73,1.1-0.73,1.77s0.26,1.3,0.73,1.77C229.45,166.01,230.09,166.27,230.75,166.27z"/>
</g>
<g>
	<defs>
		<rect id="SVGID_00000051351270200105046310000003190522465928863118_" x="245.32" y="132.07" width="5" height="5"/>
	</defs>
	<clipPath id="SVGID_00000052082709624144747050000003955981158322567336_">
		<use xlink:href="#SVGID_00000051351270200105046310000003190522465928863118_"  overflow="visible"/>
	</clipPath>
	<path clip-path="url(#SVGID_00000052082709624144747050000003955981158322567336_)" fill="#FF7F0E" d="M247.82,137.07
		c0.66,0,1.3-0.26,1.77-0.73c0.47-0.47,0.73-1.1,0.73-1.77s-0.26-1.3-0.73-1.77c-0.47-0.47-1.1-0.73-1.77-0.73s-1.3,0.26-1.77,0.73
		c-0.47,0.47-0.73,1.1-0.73,1.77s0.26,1.3,0.73,1.77C246.52,136.81,247.16,137.07,247.82,137.07z"/>
</g>
<path fill="#49AD33" d="M346.67,309.61c0.66,0,1.3-0.26,1.77-0.73s0.73-1.1,0.73-1.77s-0.26-1.3-0.73-1.77s-1.1-0.73-1.77-0.73
	s-1.3,0.26-1.77,0.73s-0.73,1.1-0.73,1.77s0.26,1.3,0.73,1.77S346.01,309.61,346.67,309.61z"/>
<rect x="344.17" y="304.61" fill="none" width="5" height="5"/>
<path fill="#49AD33" d="M341.12,298.99c0.66,0,1.3-0.26,1.77-0.73s0.73-1.1,0.73-1.77c0-0.66-0.26-1.3-0.73-1.77
	c-0.47-0.47-1.1-0.73-1.77-0.73s-1.3,0.26-1.77,0.73c-0.47,0.47-0.73,1.1-0.73,1.77c0,0.66,0.26,1.3,0.73,1.77
	S340.45,298.99,341.12,298.99z"/>
<rect x="338.62" y="293.99" fill="none" width="5" height="5"/>
<path fill="#FF2B00" d="M341.21,259.17c0.66,0,1.3-0.26,1.77-0.73s0.73-1.1,0.73-1.77s-0.26-1.3-0.73-1.77
	c-0.47-0.47-1.1-0.73-1.77-0.73s-1.3,0.26-1.77,0.73c-0.47,0.47-0.73,1.1-0.73,1.77s0.26,1.3,0.73,1.77S340.55,259.17,341.21,259.17
	z"/>
<rect x="338.71" y="254.17" fill="none" width="5" height="5"/>
<path fill="#49AD33" d="M356.93,248.56c0.66,0,1.3-0.26,1.77-0.73c0.47-0.47,0.73-1.1,0.73-1.77s-0.26-1.3-0.73-1.77
	c-0.47-0.47-1.1-0.73-1.77-0.73s-1.3,0.26-1.77,0.73c-0.47,0.47-0.73,1.1-0.73,1.77s0.26,1.3,0.73,1.77
	C355.63,248.29,356.27,248.56,356.93,248.56z"/>
<rect x="354.43" y="243.56" fill="none" width="5" height="5"/>
<path fill="#49AD33" d="M356.07,312.26c0.66,0,1.3-0.26,1.77-0.73s0.73-1.1,0.73-1.77s-0.26-1.3-0.73-1.77s-1.1-0.73-1.77-0.73
	s-1.3,0.26-1.77,0.73s-0.73,1.1-0.73,1.77s0.26,1.3,0.73,1.77S355.41,312.26,356.07,312.26z"/>
<rect x="353.57" y="307.26" fill="none" width="5" height="5"/>
<path fill="#49AD33" d="M343.9,322.88c0.66,0,1.3-0.26,1.77-0.73c0.47-0.47,0.73-1.1,0.73-1.77c0-0.66-0.26-1.3-0.73-1.77
	s-1.1-0.73-1.77-0.73s-1.3,0.26-1.77,0.73s-0.73,1.1-0.73,1.77c0,0.66,0.26,1.3,0.73,1.77C342.6,322.62,343.23,322.88,343.9,322.88z
	"/>
<rect x="341.4" y="317.88" fill="none" width="5" height="5"/>
<path fill="#49AD33" d="M471.07,259.17c0.66,0,1.3-0.26,1.77-0.73s0.73-1.1,0.73-1.77s-0.26-1.3-0.73-1.77
	c-0.47-0.47-1.1-0.73-1.77-0.73s-1.3,0.26-1.77,0.73c-0.47,0.47-0.73,1.1-0.73,1.77s0.26,1.3,0.73,1.77S470.4,259.17,471.07,259.17z
	"/>
<rect x="468.57" y="254.17" fill="none" width="5" height="5"/>
<path fill="#FF7F0E" d="M468.11,251.21c0.66,0,1.3-0.26,1.77-0.73c0.47-0.47,0.73-1.1,0.73-1.77s-0.26-1.3-0.73-1.77
	c-0.47-0.47-1.1-0.73-1.77-0.73s-1.3,0.26-1.77,0.73c-0.47,0.47-0.73,1.1-0.73,1.77s0.26,1.3,0.73,1.77
	C466.81,250.95,467.45,251.21,468.11,251.21z"/>
<rect x="465.61" y="246.21" fill="none" width="5" height="5"/>
<path fill="#49AD33" d="M468.37,314.92c0.66,0,1.3-0.26,1.77-0.73s0.73-1.1,0.73-1.77s-0.26-1.3-0.73-1.77s-1.1-0.73-1.77-0.73
	s-1.3,0.26-1.77,0.73s-0.73,1.1-0.73,1.77s0.26,1.3,0.73,1.77S467.71,314.92,468.37,314.92z"/>
<rect x="465.87" y="309.92" fill="none" width="5" height="5"/>
<path fill="#49AD33" d="M466.15,275.1c0.66,0,1.3-0.26,1.77-0.73c0.47-0.47,0.73-1.1,0.73-1.77c0-0.66-0.26-1.3-0.73-1.77
	s-1.1-0.73-1.77-0.73s-1.3,0.26-1.77,0.73s-0.73,1.1-0.73,1.77c0,0.66,0.26,1.3,0.73,1.77C464.85,274.84,465.49,275.1,466.15,275.1z
	"/>
<rect x="463.65" y="270.1" fill="none" width="5" height="5"/>
<path fill="#49AD33" d="M460.03,248.56c0.66,0,1.3-0.26,1.77-0.73c0.47-0.47,0.73-1.1,0.73-1.77s-0.26-1.3-0.73-1.77
	c-0.47-0.47-1.1-0.73-1.77-0.73s-1.3,0.26-1.77,0.73c-0.47,0.47-0.73,1.1-0.73,1.77s0.26,1.3,0.73,1.77
	C458.73,248.29,459.37,248.56,460.03,248.56z"/>
<rect x="457.53" y="243.56" fill="none" width="5" height="5"/>
<path fill="#49AD33" d="M463.47,280.41c0.66,0,1.3-0.26,1.77-0.73c0.47-0.47,0.73-1.1,0.73-1.77c0-0.66-0.26-1.3-0.73-1.77
	s-1.1-0.73-1.77-0.73s-1.3,0.26-1.77,0.73s-0.73,1.1-0.73,1.77c0,0.66,0.26,1.3,0.73,1.77
	C462.17,280.15,462.81,280.41,463.47,280.41z"/>
<rect x="460.97" y="275.41" fill="none" width="5" height="5"/>
<path fill="#49AD33" d="M484.42,85.85c1.42,0,2.79-0.57,3.8-1.57c1.01-1.01,1.57-2.37,1.57-3.8s-0.57-2.79-1.57-3.8
	c-1.01-1.01-2.37-1.57-3.8-1.57s-2.79,0.57-3.8,1.57c-1.01,1.01-1.57,2.37-1.57,3.8s0.57,2.79,1.57,3.8
	C481.62,85.29,482.99,85.85,484.42,85.85z"/>
<path fill="#FF9900" d="M484.42,100.53c1.42,0,2.79-0.57,3.8-1.57c1.01-1.01,1.57-2.37,1.57-3.8s-0.57-2.79-1.57-3.8
	c-1.01-1.01-2.37-1.57-3.8-1.57s-2.79,0.57-3.8,1.57c-1.01,1.01-1.57,2.37-1.57,3.8s0.57,2.79,1.57,3.8
	C481.62,99.96,482.99,100.53,484.42,100.53z"/>
<path fill="#FF2B00" stroke="#FF2B00" stroke-miterlimit="10" d="M484.42,115.2c1.42,0,2.79-0.57,3.8-1.57
	c1.01-1.01,1.57-2.37,1.57-3.8s-0.57-2.79-1.57-3.8c-1.01-1.01-2.37-1.57-3.8-1.57s-2.79,0.57-3.8,1.57
	c-1.01,1.01-1.57,2.37-1.57,3.8s0.57,2.79,1.57,3.8C481.62,114.63,482.99,115.2,484.42,115.2z"/>
<g>
	<path d="M477.6,68.85V58.83h7.43v1.7h-5.41v2.22h5.03v1.69h-5.03v2.73h5.6v1.69H477.6z"/>
	<path d="M486.24,66.78l1.93-0.29c0.08,0.37,0.25,0.66,0.5,0.85s0.6,0.29,1.05,0.29c0.5,0,0.87-0.09,1.12-0.27
		c0.17-0.13,0.25-0.3,0.25-0.51c0-0.15-0.05-0.27-0.14-0.36c-0.1-0.09-0.31-0.18-0.64-0.25c-1.55-0.34-2.53-0.65-2.95-0.94
		c-0.57-0.39-0.86-0.94-0.86-1.63c0-0.63,0.25-1.16,0.75-1.59s1.27-0.64,2.31-0.64c0.99,0,1.73,0.16,2.21,0.49s0.82,0.8,1,1.44
		l-1.81,0.33c-0.08-0.28-0.22-0.5-0.44-0.65c-0.22-0.15-0.53-0.23-0.93-0.23c-0.51,0-0.87,0.07-1.09,0.21
		c-0.15,0.1-0.22,0.23-0.22,0.39c0,0.14,0.06,0.25,0.19,0.35c0.17,0.13,0.77,0.31,1.79,0.54c1.02,0.23,1.74,0.52,2.14,0.85
		c0.4,0.34,0.6,0.82,0.6,1.43c0,0.67-0.28,1.24-0.83,1.72s-1.38,0.72-2.47,0.72c-0.99,0-1.77-0.2-2.35-0.6
		C486.8,68.01,486.42,67.46,486.24,66.78z"/>
	<path d="M494.71,60.6v-1.78h1.92v1.78H494.71z M494.71,68.85v-7.26h1.92v7.26H494.71z"/>
	<path d="M501.93,61.59v1.53h-1.31v2.93c0,0.59,0.01,0.94,0.04,1.04c0.03,0.1,0.08,0.18,0.17,0.24c0.09,0.06,0.2,0.1,0.32,0.1
		c0.18,0,0.44-0.06,0.77-0.18l0.16,1.49c-0.45,0.19-0.95,0.29-1.52,0.29c-0.35,0-0.66-0.06-0.94-0.17s-0.48-0.27-0.61-0.45
		c-0.13-0.18-0.22-0.43-0.27-0.75c-0.04-0.22-0.06-0.67-0.06-1.35v-3.17h-0.88v-1.53h0.88v-1.44l1.93-1.12v2.56H501.93z"/>
	<path d="M502.81,65.11c0-0.64,0.16-1.26,0.47-1.85s0.76-1.05,1.34-1.37c0.58-0.31,1.22-0.47,1.93-0.47c1.1,0,2,0.36,2.7,1.07
		s1.05,1.61,1.05,2.7c0,1.1-0.35,2.01-1.06,2.73c-0.71,0.72-1.6,1.08-2.68,1.08c-0.67,0-1.3-0.15-1.9-0.45
		c-0.6-0.3-1.06-0.74-1.38-1.32S502.81,65.95,502.81,65.11z M504.78,65.22c0,0.72,0.17,1.27,0.51,1.65s0.76,0.57,1.26,0.57
		s0.92-0.19,1.26-0.57c0.34-0.38,0.51-0.94,0.51-1.67c0-0.71-0.17-1.26-0.51-1.64c-0.34-0.38-0.76-0.57-1.26-0.57
		s-0.92,0.19-1.26,0.57S504.78,64.5,504.78,65.22z"/>
	<path d="M522.36,68.85h-1.78v-1.07c-0.3,0.41-0.65,0.72-1.05,0.93c-0.4,0.2-0.81,0.3-1.22,0.3c-0.83,0-1.55-0.34-2.14-1.01
		c-0.6-0.67-0.89-1.61-0.89-2.81c0-1.23,0.29-2.17,0.87-2.81s1.31-0.96,2.19-0.96c0.81,0,1.51,0.34,2.11,1.01v-3.61h1.92V68.85z
		 M517.23,65.06c0,0.77,0.11,1.34,0.32,1.68c0.31,0.5,0.74,0.75,1.3,0.75c0.44,0,0.82-0.19,1.13-0.56s0.46-0.94,0.46-1.69
		c0-0.83-0.15-1.43-0.45-1.8s-0.69-0.55-1.16-0.55c-0.46,0-0.84,0.18-1.14,0.54C517.38,63.8,517.23,64.34,517.23,65.06z"/>
	<path d="M528.46,66.54l1.91,0.32c-0.25,0.7-0.63,1.24-1.17,1.6c-0.53,0.37-1.19,0.55-1.99,0.55c-1.26,0-2.2-0.41-2.8-1.24
		c-0.48-0.66-0.72-1.49-0.72-2.5c0-1.2,0.31-2.15,0.94-2.83s1.42-1.02,2.39-1.02c1.08,0,1.93,0.36,2.56,1.07s0.92,1.81,0.9,3.28
		h-4.81c0.01,0.57,0.17,1.01,0.46,1.33s0.67,0.48,1.11,0.48c0.3,0,0.55-0.08,0.76-0.25S528.35,66.9,528.46,66.54z M528.57,64.6
		c-0.01-0.56-0.16-0.98-0.43-1.27s-0.61-0.43-1-0.43c-0.42,0-0.77,0.15-1.04,0.46s-0.41,0.72-0.4,1.24H528.57z"/>
	<path d="M532.04,68.85V58.83h1.92v10.02H532.04z"/>
	<path d="M543.15,61.59v1.53h-1.31v2.93c0,0.59,0.01,0.94,0.04,1.04c0.03,0.1,0.08,0.18,0.17,0.24c0.09,0.06,0.2,0.1,0.32,0.1
		c0.18,0,0.44-0.06,0.77-0.18l0.16,1.49c-0.45,0.19-0.95,0.29-1.52,0.29c-0.35,0-0.66-0.06-0.94-0.17s-0.48-0.27-0.61-0.45
		c-0.13-0.18-0.22-0.43-0.27-0.75c-0.04-0.22-0.06-0.67-0.06-1.35v-3.17h-0.88v-1.53h0.88v-1.44l1.93-1.12v2.56H543.15z"/>
	<path d="M545.92,63.8l-1.74-0.31c0.2-0.7,0.53-1.22,1.01-1.56s1.19-0.51,2.13-0.51c0.86,0,1.5,0.1,1.91,0.3s0.71,0.46,0.88,0.77
		c0.17,0.31,0.26,0.89,0.26,1.72l-0.02,2.24c0,0.64,0.03,1.11,0.09,1.41c0.06,0.3,0.18,0.63,0.35,0.97h-1.9
		c-0.05-0.13-0.11-0.32-0.18-0.57c-0.03-0.11-0.05-0.19-0.07-0.23c-0.33,0.32-0.68,0.56-1.05,0.72s-0.77,0.24-1.2,0.24
		c-0.75,0-1.34-0.2-1.77-0.61c-0.43-0.41-0.65-0.92-0.65-1.54c0-0.41,0.1-0.78,0.29-1.1s0.47-0.57,0.82-0.74
		c0.35-0.17,0.86-0.32,1.53-0.45c0.9-0.17,1.52-0.33,1.87-0.47v-0.19c0-0.37-0.09-0.63-0.27-0.79s-0.53-0.24-1.03-0.24
		c-0.34,0-0.61,0.07-0.8,0.2S546.03,63.46,545.92,63.8z M548.49,65.36c-0.25,0.08-0.64,0.18-1.17,0.29s-0.88,0.23-1.05,0.33
		c-0.25,0.18-0.38,0.4-0.38,0.68c0,0.27,0.1,0.5,0.3,0.7s0.46,0.29,0.77,0.29c0.35,0,0.68-0.11,0.99-0.34
		c0.23-0.17,0.38-0.39,0.46-0.64c0.05-0.16,0.08-0.48,0.08-0.94V65.36z"/>
	<path d="M551.59,66.78l1.93-0.29c0.08,0.37,0.25,0.66,0.5,0.85s0.6,0.29,1.05,0.29c0.5,0,0.87-0.09,1.12-0.27
		c0.17-0.13,0.25-0.3,0.25-0.51c0-0.15-0.05-0.27-0.14-0.36c-0.1-0.09-0.31-0.18-0.64-0.25c-1.55-0.34-2.53-0.65-2.95-0.94
		c-0.57-0.39-0.86-0.94-0.86-1.63c0-0.63,0.25-1.16,0.75-1.59s1.27-0.64,2.31-0.64c0.99,0,1.73,0.16,2.21,0.49s0.82,0.8,1,1.44
		l-1.81,0.33c-0.08-0.28-0.22-0.5-0.44-0.65c-0.22-0.15-0.53-0.23-0.93-0.23c-0.51,0-0.87,0.07-1.09,0.21
		c-0.15,0.1-0.22,0.23-0.22,0.39c0,0.14,0.06,0.25,0.19,0.35c0.17,0.13,0.77,0.31,1.79,0.54c1.02,0.23,1.74,0.52,2.14,0.85
		c0.4,0.34,0.6,0.82,0.6,1.43c0,0.67-0.28,1.24-0.83,1.72s-1.38,0.72-2.47,0.72c-0.99,0-1.77-0.2-2.35-0.6
		C552.14,68.01,551.77,67.46,551.59,66.78z"/>
	<path d="M559.98,68.85V58.83h1.92v5.32l2.25-2.56h2.37l-2.48,2.65l2.66,4.61h-2.07l-1.83-3.26l-0.9,0.94v2.32H559.98z"/>
</g>
<g>
	<path d="M501.77,83.48c-0.38,0.19-1.15,0.38-2.13,0.38c-2.28,0-3.99-1.44-3.99-4.09c0-2.53,1.71-4.25,4.22-4.25
		c1.01,0,1.64,0.22,1.92,0.36l-0.25,0.85c-0.4-0.19-0.96-0.34-1.63-0.34c-1.89,0-3.15,1.21-3.15,3.33c0,1.98,1.14,3.25,3.11,3.25
		c0.64,0,1.28-0.13,1.7-0.34L501.77,83.48z"/>
	<path d="M508.16,80.8c0,2.15-1.49,3.08-2.89,3.08c-1.57,0-2.78-1.15-2.78-2.99c0-1.94,1.27-3.08,2.88-3.08
		C507.04,77.81,508.16,79.02,508.16,80.8z M503.56,80.86c0,1.27,0.73,2.23,1.76,2.23c1.01,0,1.76-0.95,1.76-2.25
		c0-0.98-0.49-2.23-1.74-2.23C504.1,78.6,503.56,79.75,503.56,80.86z"/>
	<path d="M509.5,79.75c0-0.68-0.01-1.27-0.05-1.81h0.92l0.04,1.14h0.05c0.26-0.78,0.9-1.27,1.61-1.27c0.12,0,0.2,0.01,0.3,0.04v1
		c-0.11-0.02-0.22-0.04-0.36-0.04c-0.74,0-1.27,0.56-1.42,1.36c-0.02,0.14-0.05,0.31-0.05,0.49v3.09h-1.04V79.75z"/>
	<path d="M513.47,79.75c0-0.68-0.01-1.27-0.05-1.81h0.92l0.04,1.14h0.05c0.26-0.78,0.9-1.27,1.61-1.27c0.12,0,0.2,0.01,0.3,0.04v1
		c-0.11-0.02-0.22-0.04-0.36-0.04c-0.74,0-1.27,0.56-1.42,1.36c-0.02,0.14-0.05,0.31-0.05,0.49v3.09h-1.04V79.75z"/>
	<path d="M517.86,81.04c0.02,1.43,0.94,2.01,1.99,2.01c0.76,0,1.21-0.13,1.61-0.3l0.18,0.76c-0.37,0.17-1.01,0.36-1.93,0.36
		c-1.79,0-2.85-1.18-2.85-2.93c0-1.75,1.03-3.13,2.72-3.13c1.89,0,2.4,1.67,2.4,2.73c0,0.22-0.02,0.38-0.04,0.49H517.86z
		 M520.96,80.28c0.01-0.67-0.28-1.71-1.46-1.71c-1.07,0-1.54,0.98-1.62,1.71H520.96z"/>
	<path d="M524.56,76.27v1.67h1.51v0.8h-1.51v3.13c0,0.72,0.2,1.13,0.79,1.13c0.28,0,0.48-0.04,0.61-0.07l0.05,0.79
		c-0.2,0.08-0.53,0.14-0.94,0.14c-0.49,0-0.89-0.16-1.14-0.44c-0.3-0.31-0.41-0.83-0.41-1.51v-3.17h-0.9v-0.8h0.9v-1.39
		L524.56,76.27z"/>
	<path d="M528.53,76.27v1.67h1.51v0.8h-1.51v3.13c0,0.72,0.2,1.13,0.79,1.13c0.28,0,0.48-0.04,0.61-0.07l0.05,0.79
		c-0.2,0.08-0.53,0.14-0.94,0.14c-0.49,0-0.89-0.16-1.14-0.44c-0.3-0.31-0.41-0.83-0.41-1.51v-3.17h-0.9v-0.8h0.9v-1.39
		L528.53,76.27z"/>
	<path d="M536.41,80.8c0,2.15-1.49,3.08-2.89,3.08c-1.57,0-2.78-1.15-2.78-2.99c0-1.94,1.27-3.08,2.88-3.08
		C535.28,77.81,536.41,79.02,536.41,80.8z M531.81,80.86c0,1.27,0.73,2.23,1.76,2.23c1.01,0,1.76-0.95,1.76-2.25
		c0-0.98-0.49-2.23-1.74-2.23C532.35,78.6,531.81,79.75,531.81,80.86z"/>
</g>
<g>
	<path d="M497.86,96.45l-0.84,2.54h-1.08l2.75-8.08h1.26l2.76,8.08h-1.12l-0.86-2.54H497.86z M500.51,95.64l-0.79-2.33
		c-0.18-0.53-0.3-1.01-0.42-1.48h-0.02c-0.12,0.48-0.25,0.97-0.41,1.46l-0.79,2.34H500.51z"/>
	<path d="M505,91.56c0.01,0.36-0.25,0.65-0.67,0.65c-0.37,0-0.64-0.29-0.64-0.65c0-0.37,0.28-0.66,0.66-0.66
		C504.75,90.9,505,91.19,505,91.56z M503.82,98.99v-5.8h1.05v5.8H503.82z"/>
	<path d="M511.49,97.41c0,0.6,0.01,1.13,0.05,1.58h-0.94l-0.06-0.95h-0.02c-0.28,0.47-0.89,1.08-1.92,1.08c-0.91,0-2-0.5-2-2.54
		v-3.39h1.05v3.21c0,1.1,0.34,1.85,1.3,1.85c0.71,0,1.2-0.49,1.39-0.96c0.06-0.16,0.1-0.35,0.1-0.54v-3.56h1.05V97.41z"/>
	<path d="M514.51,91.52v1.67h1.51v0.8h-1.51v3.13c0,0.72,0.2,1.13,0.79,1.13c0.28,0,0.48-0.04,0.61-0.07l0.05,0.79
		c-0.2,0.08-0.53,0.14-0.94,0.14c-0.49,0-0.89-0.16-1.14-0.44c-0.3-0.31-0.41-0.83-0.41-1.51v-3.17h-0.9v-0.8h0.9V91.8L514.51,91.52
		z"/>
	<path d="M522.4,96.04c0,2.15-1.49,3.08-2.89,3.08c-1.57,0-2.78-1.15-2.78-2.99c0-1.94,1.27-3.08,2.88-3.08
		C521.27,93.06,522.4,94.27,522.4,96.04z M517.79,96.1c0,1.27,0.73,2.23,1.76,2.23c1.01,0,1.76-0.95,1.76-2.25
		c0-0.98-0.49-2.23-1.74-2.23C518.33,93.85,517.79,95,517.79,96.1z"/>
</g>
<g>
	<path d="M501.04,109.83h-3.14v2.91h3.5v0.88h-4.55v-8.08h4.37v0.88h-3.32v2.55h3.14V109.83z"/>
	<path d="M502.72,109.63c0-0.68-0.01-1.27-0.05-1.81h0.92l0.04,1.14h0.05c0.26-0.78,0.9-1.27,1.61-1.27c0.12,0,0.2,0.01,0.3,0.04v1
		c-0.11-0.02-0.22-0.04-0.36-0.04c-0.74,0-1.27,0.56-1.42,1.36c-0.02,0.14-0.05,0.31-0.05,0.49v3.09h-1.04V109.63z"/>
	<path d="M506.69,109.63c0-0.68-0.01-1.27-0.05-1.81h0.92l0.04,1.14h0.05c0.26-0.78,0.9-1.27,1.61-1.27c0.12,0,0.2,0.01,0.3,0.04v1
		c-0.11-0.02-0.22-0.04-0.36-0.04c-0.74,0-1.27,0.56-1.42,1.36c-0.02,0.14-0.05,0.31-0.05,0.49v3.09h-1.04V109.63z"/>
	<path d="M513.77,113.62l-0.08-0.73h-0.04c-0.32,0.46-0.95,0.86-1.78,0.86c-1.17,0-1.77-0.83-1.77-1.67c0-1.4,1.25-2.17,3.49-2.16
		v-0.12c0-0.48-0.13-1.34-1.32-1.34c-0.54,0-1.1,0.17-1.51,0.43l-0.24-0.7c0.48-0.31,1.17-0.52,1.91-0.52
		c1.78,0,2.21,1.21,2.21,2.37v2.17c0,0.5,0.02,1,0.1,1.39H513.77z M513.61,110.66c-1.15-0.02-2.46,0.18-2.46,1.31
		c0,0.68,0.46,1.01,1,1.01c0.76,0,1.24-0.48,1.4-0.97c0.04-0.11,0.06-0.23,0.06-0.34V110.66z"/>
	<path d="M517.56,106.15v1.67h1.51v0.8h-1.51v3.13c0,0.72,0.2,1.13,0.79,1.13c0.28,0,0.48-0.04,0.61-0.07l0.05,0.79
		c-0.2,0.08-0.53,0.14-0.94,0.14c-0.49,0-0.89-0.16-1.14-0.44c-0.3-0.31-0.41-0.83-0.41-1.51v-3.17h-0.9v-0.8h0.9v-1.39
		L517.56,106.15z"/>
	<path d="M525.44,110.67c0,2.15-1.49,3.08-2.89,3.08c-1.57,0-2.78-1.15-2.78-2.99c0-1.94,1.27-3.08,2.88-3.08
		C524.32,107.69,525.44,108.9,525.44,110.67z M520.84,110.73c0,1.27,0.73,2.23,1.76,2.23c1.01,0,1.76-0.95,1.76-2.25
		c0-0.98-0.49-2.23-1.74-2.23C521.38,108.48,520.84,109.63,520.84,110.73z"/>
</g>
<g>
	<path d="M77.46,41.89l0.87-0.14c0.05,0.35,0.18,0.62,0.41,0.8s0.53,0.28,0.94,0.28c0.4,0,0.7-0.08,0.9-0.25s0.29-0.36,0.29-0.58
		c0-0.2-0.09-0.35-0.26-0.47c-0.12-0.08-0.42-0.18-0.9-0.3c-0.64-0.16-1.09-0.3-1.34-0.42s-0.44-0.28-0.57-0.49s-0.19-0.44-0.19-0.7
		c0-0.23,0.05-0.45,0.16-0.64s0.25-0.36,0.43-0.49c0.14-0.1,0.32-0.19,0.56-0.26s0.49-0.1,0.76-0.1c0.41,0,0.76,0.06,1.07,0.18
		s0.53,0.28,0.68,0.48s0.25,0.47,0.3,0.8l-0.86,0.12c-0.04-0.27-0.15-0.48-0.34-0.62s-0.45-0.22-0.79-0.22
		c-0.4,0-0.69,0.07-0.86,0.2s-0.26,0.29-0.26,0.47c0,0.11,0.04,0.22,0.11,0.31c0.07,0.09,0.18,0.17,0.34,0.23
		c0.09,0.03,0.35,0.11,0.78,0.22c0.62,0.17,1.06,0.3,1.3,0.41s0.44,0.26,0.58,0.46s0.21,0.45,0.21,0.75c0,0.29-0.09,0.57-0.26,0.83
		s-0.42,0.46-0.74,0.6s-0.69,0.21-1.09,0.21c-0.67,0-1.19-0.14-1.54-0.42S77.56,42.44,77.46,41.89z"/>
	<path d="M86.37,41.77l0.91,0.11c-0.14,0.53-0.41,0.94-0.8,1.24s-0.88,0.44-1.48,0.44c-0.76,0-1.36-0.23-1.8-0.7
		s-0.67-1.12-0.67-1.97c0-0.87,0.22-1.55,0.67-2.03s1.03-0.72,1.75-0.72c0.69,0,1.26,0.24,1.7,0.71s0.66,1.14,0.66,1.99
		c0,0.05,0,0.13,0,0.23h-3.87c0.03,0.57,0.19,1.01,0.48,1.31s0.65,0.45,1.08,0.45c0.32,0,0.6-0.08,0.83-0.25
		S86.23,42.14,86.37,41.77z M83.48,40.35h2.9c-0.04-0.44-0.15-0.76-0.33-0.98c-0.28-0.34-0.64-0.51-1.09-0.51
		c-0.4,0-0.74,0.14-1.02,0.41S83.51,39.89,83.48,40.35z"/>
	<path d="M91.76,41.54l0.86,0.11c-0.09,0.6-0.34,1.06-0.73,1.4s-0.87,0.51-1.43,0.51c-0.71,0-1.28-0.23-1.71-0.7
		s-0.65-1.13-0.65-1.99c0-0.56,0.09-1.05,0.28-1.47s0.47-0.73,0.85-0.94s0.79-0.31,1.24-0.31c0.56,0,1.02,0.14,1.38,0.43
		s0.59,0.69,0.69,1.21l-0.85,0.13c-0.08-0.35-0.23-0.61-0.43-0.79s-0.46-0.26-0.75-0.26c-0.44,0-0.8,0.16-1.08,0.48
		s-0.42,0.82-0.42,1.51c0,0.7,0.13,1.2,0.4,1.52s0.62,0.47,1.04,0.47c0.35,0,0.63-0.11,0.86-0.32S91.7,41.98,91.76,41.54z"/>
	<path d="M93.05,40.85c0-0.96,0.27-1.67,0.8-2.13c0.45-0.38,0.99-0.58,1.63-0.58c0.71,0,1.3,0.23,1.75,0.7s0.68,1.11,0.68,1.94
		c0,0.67-0.1,1.19-0.3,1.57s-0.49,0.68-0.87,0.89s-0.8,0.32-1.25,0.32c-0.73,0-1.31-0.23-1.76-0.7S93.05,41.72,93.05,40.85z
		 M93.95,40.85c0,0.66,0.15,1.16,0.43,1.49s0.65,0.5,1.09,0.5c0.44,0,0.8-0.17,1.09-0.5s0.43-0.84,0.43-1.52
		c0-0.64-0.15-1.13-0.44-1.46s-0.65-0.5-1.09-0.5c-0.44,0-0.8,0.16-1.09,0.49S93.95,40.18,93.95,40.85z"/>
	<path d="M98.94,43.44v-5.19h0.79v0.74c0.38-0.57,0.93-0.85,1.65-0.85c0.31,0,0.6,0.06,0.86,0.17s0.46,0.26,0.59,0.44
		s0.22,0.4,0.27,0.65c0.03,0.16,0.05,0.45,0.05,0.85v3.19h-0.88v-3.15c0-0.36-0.03-0.63-0.1-0.8s-0.19-0.32-0.36-0.42
		s-0.38-0.16-0.61-0.16c-0.37,0-0.7,0.12-0.97,0.36s-0.41,0.69-0.41,1.35v2.83H98.94z"/>
	<path d="M107.86,43.44v-0.65c-0.33,0.51-0.81,0.77-1.45,0.77c-0.41,0-0.79-0.11-1.14-0.34s-0.62-0.55-0.81-0.95
		s-0.29-0.88-0.29-1.41c0-0.52,0.09-0.99,0.26-1.41s0.43-0.74,0.78-0.97s0.73-0.34,1.16-0.34c0.31,0,0.59,0.07,0.83,0.2
		s0.44,0.3,0.6,0.52v-2.57h0.87v7.16H107.86z M105.09,40.85c0,0.66,0.14,1.16,0.42,1.49s0.61,0.49,0.99,0.49
		c0.38,0,0.71-0.16,0.98-0.47s0.4-0.79,0.4-1.44c0-0.71-0.14-1.23-0.41-1.56s-0.61-0.5-1.01-0.5c-0.39,0-0.72,0.16-0.98,0.48
		S105.09,40.16,105.09,40.85z"/>
	<path d="M110.07,37.29v-1.01h0.88v1.01H110.07z M110.07,43.44v-5.19h0.88v5.19H110.07z"/>
	<path d="M115.06,45.43v-7.17h0.8v0.67c0.19-0.26,0.4-0.46,0.64-0.59s0.53-0.2,0.86-0.2c0.44,0,0.83,0.11,1.17,0.34
		s0.59,0.55,0.77,0.96s0.26,0.87,0.26,1.36c0,0.53-0.1,1.01-0.29,1.43s-0.47,0.75-0.83,0.98s-0.74,0.34-1.15,0.34
		c-0.29,0-0.56-0.06-0.79-0.19s-0.42-0.28-0.57-0.47v2.52H115.06z M115.86,40.87c0,0.67,0.14,1.16,0.41,1.48s0.6,0.48,0.98,0.48
		c0.39,0,0.73-0.17,1-0.5s0.42-0.84,0.42-1.54c0-0.66-0.14-1.16-0.41-1.48s-0.6-0.49-0.97-0.49c-0.37,0-0.71,0.17-0.99,0.52
		S115.86,40.21,115.86,40.87z"/>
	<path d="M124.17,41.77l0.91,0.11c-0.14,0.53-0.41,0.94-0.8,1.24s-0.88,0.44-1.48,0.44c-0.76,0-1.36-0.23-1.8-0.7
		s-0.67-1.12-0.67-1.97c0-0.87,0.22-1.55,0.67-2.03s1.03-0.72,1.75-0.72c0.69,0,1.26,0.24,1.7,0.71s0.66,1.14,0.66,1.99
		c0,0.05,0,0.13,0,0.23h-3.87c0.03,0.57,0.19,1.01,0.48,1.31s0.65,0.45,1.08,0.45c0.32,0,0.6-0.08,0.83-0.25
		S124.04,42.14,124.17,41.77z M121.29,40.35h2.9c-0.04-0.44-0.15-0.76-0.33-0.98c-0.28-0.34-0.64-0.51-1.09-0.51
		c-0.4,0-0.74,0.14-1.02,0.41S121.32,39.89,121.29,40.35z"/>
	<path d="M126.18,43.44v-5.19h0.79v0.79c0.2-0.37,0.39-0.61,0.56-0.73s0.36-0.18,0.56-0.18c0.3,0,0.6,0.09,0.9,0.28l-0.3,0.82
		c-0.21-0.13-0.43-0.19-0.64-0.19c-0.19,0-0.36,0.06-0.52,0.17s-0.26,0.28-0.33,0.48c-0.1,0.31-0.15,0.65-0.15,1.03v2.71H126.18z"/>
	<path d="M135.68,41.54l0.86,0.11c-0.09,0.6-0.34,1.06-0.73,1.4s-0.87,0.51-1.43,0.51c-0.71,0-1.28-0.23-1.71-0.7
		s-0.65-1.13-0.65-1.99c0-0.56,0.09-1.05,0.28-1.47s0.47-0.73,0.85-0.94s0.79-0.31,1.24-0.31c0.56,0,1.02,0.14,1.38,0.43
		s0.59,0.69,0.69,1.21l-0.85,0.13c-0.08-0.35-0.23-0.61-0.43-0.79s-0.46-0.26-0.75-0.26c-0.44,0-0.8,0.16-1.08,0.48
		s-0.42,0.82-0.42,1.51c0,0.7,0.13,1.2,0.4,1.52s0.62,0.47,1.04,0.47c0.35,0,0.63-0.11,0.86-0.32S135.62,41.98,135.68,41.54z"/>
	<path d="M136.97,40.85c0-0.96,0.27-1.67,0.8-2.13c0.45-0.38,0.99-0.58,1.63-0.58c0.71,0,1.3,0.23,1.75,0.7s0.68,1.11,0.68,1.94
		c0,0.67-0.1,1.19-0.3,1.57s-0.49,0.68-0.87,0.89s-0.8,0.32-1.25,0.32c-0.73,0-1.31-0.23-1.76-0.7S136.97,41.72,136.97,40.85z
		 M137.87,40.85c0,0.66,0.15,1.16,0.43,1.49s0.65,0.5,1.09,0.5c0.44,0,0.8-0.17,1.09-0.5s0.43-0.84,0.43-1.52
		c0-0.64-0.15-1.13-0.44-1.46s-0.65-0.5-1.09-0.5c-0.44,0-0.8,0.16-1.09,0.49S137.87,40.18,137.87,40.85z"/>
	<path d="M142.85,43.44v-5.19h0.79v0.73c0.16-0.25,0.38-0.46,0.65-0.61s0.58-0.23,0.92-0.23c0.38,0,0.7,0.08,0.94,0.24
		s0.42,0.38,0.52,0.67c0.41-0.61,0.94-0.91,1.6-0.91c0.51,0,0.91,0.14,1.19,0.43s0.42,0.72,0.42,1.32v3.56h-0.87v-3.27
		c0-0.35-0.03-0.6-0.09-0.76s-0.16-0.28-0.31-0.37s-0.33-0.14-0.53-0.14c-0.36,0-0.67,0.12-0.91,0.36s-0.36,0.63-0.36,1.16v3.01
		h-0.88v-3.37c0-0.39-0.07-0.68-0.21-0.88s-0.38-0.29-0.7-0.29c-0.25,0-0.48,0.06-0.69,0.2s-0.36,0.32-0.46,0.57
		s-0.14,0.61-0.14,1.08v2.69H142.85z"/>
	<path d="M151.19,45.43v-7.17h0.8v0.67c0.19-0.26,0.4-0.46,0.64-0.59s0.53-0.2,0.86-0.2c0.44,0,0.83,0.11,1.17,0.34
		s0.59,0.55,0.77,0.96s0.26,0.87,0.26,1.36c0,0.53-0.1,1.01-0.29,1.43s-0.47,0.75-0.83,0.98s-0.74,0.34-1.15,0.34
		c-0.29,0-0.56-0.06-0.79-0.19s-0.42-0.28-0.57-0.47v2.52H151.19z M151.98,40.87c0,0.67,0.14,1.16,0.41,1.48s0.6,0.48,0.98,0.48
		c0.39,0,0.73-0.17,1-0.5s0.42-0.84,0.42-1.54c0-0.66-0.14-1.16-0.41-1.48s-0.6-0.49-0.97-0.49c-0.37,0-0.71,0.17-0.99,0.52
		S151.98,40.21,151.98,40.87z"/>
	<path d="M156.73,43.44v-7.16h0.88v7.16H156.73z"/>
	<path d="M162.52,41.77l0.91,0.11c-0.14,0.53-0.41,0.94-0.8,1.24s-0.88,0.44-1.48,0.44c-0.76,0-1.36-0.23-1.8-0.7
		s-0.67-1.12-0.67-1.97c0-0.87,0.22-1.55,0.67-2.03s1.03-0.72,1.75-0.72c0.69,0,1.26,0.24,1.7,0.71s0.66,1.14,0.66,1.99
		c0,0.05,0,0.13,0,0.23h-3.87c0.03,0.57,0.19,1.01,0.48,1.31s0.65,0.45,1.08,0.45c0.32,0,0.6-0.08,0.83-0.25
		S162.38,42.14,162.52,41.77z M159.63,40.35h2.9c-0.04-0.44-0.15-0.76-0.33-0.98c-0.28-0.34-0.64-0.51-1.09-0.51
		c-0.4,0-0.74,0.14-1.02,0.41S159.66,39.89,159.63,40.35z"/>
	<path d="M166.45,42.65l0.13,0.78c-0.25,0.05-0.47,0.08-0.66,0.08c-0.32,0-0.57-0.05-0.74-0.15s-0.3-0.23-0.37-0.4
		s-0.11-0.51-0.11-1.04v-2.98h-0.64v-0.68h0.64v-1.28l0.87-0.53v1.81h0.88v0.68h-0.88v3.03c0,0.25,0.02,0.41,0.05,0.48
		s0.08,0.13,0.15,0.17s0.17,0.06,0.3,0.06C166.16,42.69,166.29,42.67,166.45,42.65z"/>
	<path d="M170.69,42.8c-0.33,0.28-0.64,0.47-0.94,0.59s-0.62,0.17-0.97,0.17c-0.57,0-1.01-0.14-1.31-0.42s-0.46-0.63-0.46-1.07
		c0-0.25,0.06-0.49,0.17-0.7s0.27-0.38,0.45-0.51s0.4-0.22,0.63-0.29c0.17-0.05,0.43-0.09,0.78-0.13c0.71-0.08,1.23-0.19,1.57-0.3
		c0-0.12,0-0.2,0-0.23c0-0.36-0.08-0.61-0.25-0.76c-0.22-0.2-0.56-0.3-1-0.3c-0.41,0-0.72,0.07-0.92,0.22s-0.34,0.4-0.44,0.77
		l-0.86-0.12c0.08-0.37,0.21-0.67,0.39-0.89s0.44-0.4,0.78-0.52s0.73-0.18,1.18-0.18c0.44,0,0.8,0.05,1.08,0.16s0.48,0.24,0.61,0.39
		s0.22,0.36,0.27,0.6c0.03,0.15,0.04,0.42,0.04,0.81v1.17c0,0.82,0.02,1.33,0.06,1.55s0.11,0.42,0.22,0.62h-0.92
		C170.78,43.26,170.72,43.04,170.69,42.8z M170.62,40.84c-0.32,0.13-0.8,0.24-1.44,0.33c-0.36,0.05-0.62,0.11-0.77,0.18
		s-0.27,0.16-0.35,0.29s-0.12,0.26-0.12,0.42c0,0.23,0.09,0.43,0.27,0.59s0.44,0.23,0.78,0.23c0.34,0,0.64-0.07,0.9-0.22
		s0.46-0.35,0.58-0.61c0.09-0.2,0.14-0.49,0.14-0.88V40.84z"/>
	<path d="M172.86,43.44v-5.19h0.79v0.79c0.2-0.37,0.39-0.61,0.56-0.73s0.36-0.18,0.56-0.18c0.3,0,0.6,0.09,0.9,0.28l-0.3,0.82
		c-0.21-0.13-0.43-0.19-0.64-0.19c-0.19,0-0.36,0.06-0.52,0.17s-0.26,0.28-0.33,0.48c-0.1,0.31-0.15,0.65-0.15,1.03v2.71H172.86z"/>
	<path d="M179.75,41.77l0.91,0.11c-0.14,0.53-0.41,0.94-0.8,1.24s-0.88,0.44-1.48,0.44c-0.76,0-1.36-0.23-1.8-0.7
		s-0.67-1.12-0.67-1.97c0-0.87,0.22-1.55,0.67-2.03s1.03-0.72,1.75-0.72c0.69,0,1.26,0.24,1.7,0.71s0.66,1.14,0.66,1.99
		c0,0.05,0,0.13,0,0.23h-3.87c0.03,0.57,0.19,1.01,0.48,1.31s0.65,0.45,1.08,0.45c0.32,0,0.6-0.08,0.83-0.25
		S179.62,42.14,179.75,41.77z M176.86,40.35h2.9c-0.04-0.44-0.15-0.76-0.33-0.98c-0.28-0.34-0.64-0.51-1.09-0.51
		c-0.4,0-0.74,0.14-1.02,0.41S176.89,39.89,176.86,40.35z"/>
	<path d="M184.54,37.29v-1.01h0.88v1.01H184.54z M184.54,43.44v-5.19h0.88v5.19H184.54z"/>
	<path d="M186.74,43.44v-7.16h0.88v7.16H186.74z"/>
	<path d="M193.68,42.65l0.13,0.78c-0.25,0.05-0.47,0.08-0.66,0.08c-0.32,0-0.57-0.05-0.74-0.15s-0.3-0.23-0.37-0.4
		s-0.11-0.51-0.11-1.04v-2.98h-0.64v-0.68h0.64v-1.28l0.87-0.53v1.81h0.88v0.68h-0.88v3.03c0,0.25,0.02,0.41,0.05,0.48
		s0.08,0.13,0.15,0.17s0.17,0.06,0.3,0.06C193.39,42.69,193.52,42.67,193.68,42.65z"/>
	<path d="M197.92,42.8c-0.33,0.28-0.64,0.47-0.94,0.59s-0.62,0.17-0.97,0.17c-0.57,0-1.01-0.14-1.31-0.42s-0.46-0.63-0.46-1.07
		c0-0.25,0.06-0.49,0.17-0.7s0.27-0.38,0.45-0.51s0.4-0.22,0.63-0.29c0.17-0.05,0.43-0.09,0.78-0.13c0.71-0.08,1.23-0.19,1.57-0.3
		c0-0.12,0-0.2,0-0.23c0-0.36-0.08-0.61-0.25-0.76c-0.22-0.2-0.56-0.3-1-0.3c-0.41,0-0.72,0.07-0.92,0.22s-0.34,0.4-0.44,0.77
		l-0.86-0.12c0.08-0.37,0.21-0.67,0.39-0.89s0.44-0.4,0.78-0.52s0.73-0.18,1.18-0.18c0.44,0,0.8,0.05,1.08,0.16s0.48,0.24,0.61,0.39
		s0.22,0.36,0.27,0.6c0.03,0.15,0.04,0.42,0.04,0.81v1.17c0,0.82,0.02,1.33,0.06,1.55s0.11,0.42,0.22,0.62h-0.92
		C198.01,43.26,197.95,43.04,197.92,42.8z M197.85,40.84c-0.32,0.13-0.8,0.24-1.44,0.33c-0.36,0.05-0.62,0.11-0.77,0.18
		s-0.27,0.16-0.35,0.29s-0.12,0.26-0.12,0.42c0,0.23,0.09,0.43,0.27,0.59s0.44,0.23,0.78,0.23c0.34,0,0.64-0.07,0.9-0.22
		s0.46-0.35,0.58-0.61c0.09-0.2,0.14-0.49,0.14-0.88V40.84z"/>
	<path d="M199.75,41.89l0.87-0.14c0.05,0.35,0.18,0.62,0.41,0.8s0.53,0.28,0.94,0.28c0.4,0,0.7-0.08,0.9-0.25s0.29-0.36,0.29-0.58
		c0-0.2-0.09-0.35-0.26-0.47c-0.12-0.08-0.42-0.18-0.9-0.3c-0.64-0.16-1.09-0.3-1.34-0.42s-0.44-0.28-0.57-0.49s-0.19-0.44-0.19-0.7
		c0-0.23,0.05-0.45,0.16-0.64s0.25-0.36,0.43-0.49c0.14-0.1,0.32-0.19,0.56-0.26s0.49-0.1,0.76-0.1c0.41,0,0.76,0.06,1.07,0.18
		s0.53,0.28,0.68,0.48s0.25,0.47,0.3,0.8L203,39.71c-0.04-0.27-0.15-0.48-0.34-0.62s-0.45-0.22-0.79-0.22c-0.4,0-0.69,0.07-0.86,0.2
		s-0.26,0.29-0.26,0.47c0,0.11,0.04,0.22,0.11,0.31c0.07,0.09,0.18,0.17,0.34,0.23c0.09,0.03,0.35,0.11,0.78,0.22
		c0.62,0.17,1.06,0.3,1.3,0.41s0.44,0.26,0.58,0.46s0.21,0.45,0.21,0.75c0,0.29-0.09,0.57-0.26,0.83s-0.42,0.46-0.74,0.6
		s-0.69,0.21-1.09,0.21c-0.67,0-1.19-0.14-1.54-0.42S199.85,42.44,199.75,41.89z"/>
	<path d="M205.11,43.44v-7.16h0.88v4.08l2.08-2.11h1.14l-1.98,1.92l2.18,3.26h-1.08l-1.71-2.65l-0.62,0.6v2.06H205.11z"/>
</g>
</svg>
